<svg width="144" height="96" viewBox="0 0 144 96" fill="none" xmlns="http://www.w3.org/2000/svg">
<path d="M112.095 79.9731C107.666 79.9731 105.039 77.7067 104.839 74.4423H109.073C109.073 75.5304 109.676 76.979 112.296 77.0691C114.112 77.0691 115.117 75.981 115.117 75.1631C114.916 73.8948 113.301 73.8045 111.693 73.5273C110.24 73.3556 108.816 72.9919 107.458 72.446C106.768 72.0596 106.197 71.492 105.806 70.8042C105.415 70.1165 105.219 69.3348 105.241 68.544C105.241 65.6399 107.666 63.3735 111.894 63.3735C115.928 63.3735 118.548 65.4597 118.742 68.6341H114.715C114.715 67.8232 114.514 66.4578 112.095 66.4578C110.48 66.4578 109.475 66.728 109.274 67.9063C109.274 69.542 112.698 69.452 115.318 70.0828C117.737 70.7204 119.352 72.259 119.352 74.4423C119.352 78.4345 116.129 79.9731 112.095 79.9731Z" fill="black"/>
<path d="M34.9269 53.1879L48.8303 45.1133L56.2881 57.908H37.5471" fill="black"/>
<path d="M64.1638 79.4907V63.3418V79.4907Z" fill="black"/>
<path d="M64.1638 79.4907V63.3418" stroke="black" stroke-width="4.06856"/>
<path d="M28.4743 71.6562C28.4743 74.1929 30.6922 76.2791 33.1041 76.2791C35.7309 76.2791 37.7409 74.1929 37.7409 71.6562C37.7409 69.2096 35.7309 67.0334 33.1041 67.0334C31.8906 67.0747 30.7379 67.5748 29.8786 68.4328C29.0193 69.2907 28.5175 70.4427 28.4743 71.6562ZM32.9031 80.0011C28.4743 80.0011 24.6484 76.2791 24.6484 71.6562C24.6484 67.0333 28.4743 63.4015 32.9031 63.4015C34.719 63.4015 36.3339 63.859 37.7409 64.8501V63.5817H41.7747V79.6337H37.7409V78.6356C36.5349 79.5435 34.719 80.0011 32.9031 80.0011Z" fill="black"/>
<path d="M86.7165 57.9042L67.3722 24.1646L81.276 16L105.458 57.9042" fill="black"/>
<path d="M47.0142 71.6555C47.0142 74.1922 49.0311 76.2784 51.6509 76.2784C54.0629 76.2784 56.2877 74.1922 56.2877 71.6555C56.2428 70.4414 55.7395 69.2894 54.8791 68.4316C54.0187 67.5738 52.8652 67.0739 51.6509 67.0327C50.4253 67.0381 49.2511 67.5265 48.3832 68.3919C47.5152 69.2573 47.0233 70.4299 47.0142 71.6555ZM51.4499 80.0004C50.3575 80.0023 49.2755 79.7871 48.2668 79.3673C47.2582 78.9476 46.3429 78.3317 45.5743 77.5553C44.8057 76.7789 44.199 75.8575 43.7894 74.8447C43.3798 73.8319 43.1755 72.7479 43.1883 71.6555C43.1883 67.0326 46.8132 63.4008 51.4499 63.4008C53.2589 63.4008 54.8738 63.8583 56.2877 64.8494V58.0501H60.3145V79.633H56.2877V78.6349C54.8429 79.5524 53.1612 80.0272 51.4499 80.0004Z" fill="black"/>
<path d="M51.251 38.7671L65.3558 30.7897L80.8737 57.9033H66.1596V61.8955H62.1327V57.9033" fill="black"/>
<path d="M116.739 62.0219C116.212 62.0065 115.711 61.7919 115.337 61.4214C114.963 61.0509 114.743 60.5522 114.722 60.0259C114.743 59.4996 114.963 59.0008 115.337 58.6303C115.711 58.2598 116.212 58.0452 116.739 58.0298C117.004 58.0223 117.268 58.0686 117.515 58.166C117.761 58.2634 117.986 58.4096 118.174 58.5962C118.363 58.7828 118.512 59.0058 118.612 59.2515C118.711 59.4972 118.761 59.7606 118.756 60.0259C118.761 60.2911 118.711 60.5545 118.612 60.8002C118.512 61.0459 118.363 61.2689 118.174 61.4555C117.986 61.6421 117.761 61.7885 117.515 61.8859C117.268 61.9833 117.004 62.0295 116.739 62.0219ZM116.739 58.3071C115.727 58.3071 115.124 59.1179 115.124 60.0259C115.124 60.9338 115.727 61.7516 116.739 61.7516C117.744 61.7516 118.347 60.9338 118.347 60.0259C118.347 59.1179 117.744 58.3071 116.739 58.3071Z" fill="black"/>
<path d="M117.155 61.1209L116.753 60.2129H116.351V61.1209H116.046V58.9445H116.954C117.155 58.9445 117.557 59.2218 117.557 59.5822C117.564 59.7161 117.529 59.8488 117.457 59.9618C117.384 60.0749 117.279 60.1626 117.155 60.2129L117.557 61.1209M116.753 59.2218H116.351V59.9426H116.753C117.155 59.9426 117.155 59.8525 117.155 59.5822C117.155 59.395 117.155 59.2218 116.753 59.2218ZM90.1243 71.6558C90.1243 74.1925 92.1411 76.2787 94.761 76.2787C97.1799 76.2787 99.3908 74.1925 99.3908 71.6558C99.3493 70.4418 98.8479 69.2888 97.9883 68.4304C97.1287 67.5721 95.9751 67.0727 94.761 67.033C93.5353 67.0384 92.3612 67.5268 91.4932 68.3922C90.6252 69.2575 90.1334 70.4302 90.1243 71.6558ZM94.5531 80.0007C93.4612 80.0017 92.3799 79.7858 91.3721 79.3657C90.3642 78.9456 89.4498 78.3293 88.6819 77.553C87.914 76.7768 87.3079 75.8559 86.8988 74.8435C86.4896 73.8312 86.2855 72.7476 86.2984 71.6558C86.2984 67.0329 89.9233 63.4011 94.5531 63.4011C96.369 63.4011 97.9839 63.8586 99.3908 64.8497V63.5813H103.224V79.6333H99.3908V78.6351C97.9469 79.5546 96.2646 80.0295 94.5531 80.0007ZM71.598 71.6558C71.598 74.1925 73.8158 76.2787 76.2347 76.2787C78.8546 76.2787 80.8715 74.1925 80.8715 71.6558C80.8624 70.4302 80.3705 69.2575 79.5025 68.3922C78.6345 67.5268 77.4604 67.0384 76.2347 67.033C75.0199 67.0726 73.8655 67.5719 73.0048 68.43C72.1441 69.2882 71.6412 70.4411 71.598 71.6558ZM80.8715 58.0504H84.8983V79.6333H80.8715V78.6351C79.5134 79.5779 77.887 80.057 76.2347 80.0007C71.5979 80.0007 67.7721 76.2787 67.7721 71.6558C67.7721 67.0329 71.5979 63.4011 76.2347 63.4011C78.0437 63.4011 79.6586 63.8586 80.8715 64.8497V58.0504Z" fill="black"/>
</svg>
