<svg width="144" height="96" viewBox="0 0 144 96" fill="none" xmlns="http://www.w3.org/2000/svg">
<mask id="mask0_7_12090" style="mask-type:luminance" maskUnits="userSpaceOnUse" x="16" y="35" width="112" height="26">
<path d="M16.6143 60.6516H127.384V35.3499H16.6143V60.6516Z" fill="white"/>
</mask>
<g mask="url(#mask0_7_12090)">
<path d="M25.4526 54.7665C23.6356 54.7665 21.9655 54.1443 20.6412 53.101C22.181 49.6253 25.3186 44.9623 29.597 40.4082C31.7811 41.7859 33.2319 44.2182 33.2319 46.9903C33.2319 48.1737 32.9653 49.2963 32.4924 50.3008C31.1353 49.6725 29.8696 48.8866 28.7958 47.8943L31.1399 52.2945C29.7196 53.8161 27.6984 54.7665 25.4526 54.7665ZM17.6757 46.9903C17.6757 42.6929 21.1567 39.2118 25.4526 39.2118C26.6041 39.2118 27.6954 39.4624 28.6809 39.9102C24.4657 43.6357 21.2017 47.9658 19.2704 51.7081C18.2705 50.3975 17.6757 48.7655 17.6757 46.9903ZM33.4694 50.7181C33.9987 49.5857 34.2927 48.3215 34.2927 46.9903C34.2927 43.9174 32.7247 41.2109 30.3441 39.6269C31.7621 38.1678 33.2966 36.7261 34.9301 35.3485C33.0156 36.4748 31.2168 37.7642 29.5543 39.157C28.329 38.5143 26.9331 38.1487 25.4526 38.1487C20.5719 38.1487 16.6141 42.1088 16.6141 46.9903C16.6141 49.1935 17.4214 51.2116 18.7564 52.7575C17.0627 56.4198 16.7664 59.3609 18.259 60.3555C19.856 61.4209 23.3302 59.4896 25.4153 56.3444C25.4153 56.3444 22.1909 59.2536 20.4195 58.5864C19.3298 58.1737 19.326 56.5066 20.2246 54.1161C21.6898 55.1929 23.4962 55.8288 25.4526 55.8288C27.8751 55.8288 30.0676 54.8556 31.6646 53.2792L31.9784 53.8701C35.8311 53.5571 47.3343 53.2525 47.3343 53.2525C47.3343 52.7004 39.718 53.2015 33.4694 50.7181Z" fill="#1D439C"/>
</g>
<path fill-rule="evenodd" clip-rule="evenodd" d="M86.2086 46.1771L87.6487 44.2641L82.6324 44.2625L83.8684 42.6237H88.8847L90.3286 40.7114H80.3119L73.4214 49.8554H83.4397L84.8783 47.9408H79.8634L81.1893 46.1771H86.2086ZM93.1654 40.7115L86.278 49.8554H91.2752L98.1642 40.7115H93.1654ZM109.817 40.7115L106.326 45.3471L105.252 40.7115H101.346L94.4573 49.8554H97.7632L101.225 45.261L102.288 49.8554H106.235L113.126 40.7115H109.817Z" fill="#1D439C"/>
<mask id="mask1_7_12090" style="mask-type:luminance" maskUnits="userSpaceOnUse" x="6" y="28" width="133" height="42">
<path d="M6.30798 69.3894H138.614V28.0418H6.30798V69.3894Z" fill="white"/>
</mask>
<g mask="url(#mask1_7_12090)">
<path d="M126.159 40.7114L118.125 40.7099C116.75 40.7099 115.531 41.3686 114.76 42.3898L110.613 47.8936C110.457 48.0977 110.367 48.3528 110.367 48.6293C110.367 49.3055 110.914 49.8553 111.59 49.8553H119.623C120.999 49.8553 122.222 49.1958 122.991 48.1754L123.987 46.854H125.148L126.598 44.9274H120.445L118.502 47.5044C118.401 47.6401 118.269 47.7503 118.118 47.826C117.966 47.9018 117.799 47.9411 117.629 47.9408H116.215C116.036 47.9408 115.895 47.7976 115.895 47.6225C115.895 47.5494 115.919 47.4831 115.96 47.4321L119.255 43.0585C119.453 42.7927 119.77 42.6236 120.127 42.6236H121.543C121.721 42.6236 121.862 42.7661 121.862 42.9412C121.862 43.0113 121.836 43.0791 121.797 43.1339L121.262 43.8444H126.255L127.138 42.6709C127.291 42.4675 127.383 42.214 127.383 41.936C127.383 41.2597 126.834 40.7114 126.159 40.7114ZM70.6274 43.1337L67.3314 47.505C67.23 47.6406 67.0982 47.7507 66.9467 47.8263C66.7952 47.902 66.628 47.9411 66.4586 47.9405H65.0429C64.8685 47.9405 64.7268 47.7982 64.7268 47.6238C64.7268 47.5491 64.7512 47.4829 64.7893 47.4319L68.0838 43.0598C68.2856 42.797 68.6016 42.6234 68.9572 42.6234H70.3738C70.5497 42.6234 70.6913 42.7666 70.6913 42.941C70.6906 43.0103 70.6683 43.0777 70.6274 43.1337ZM76.2126 41.9358C76.2126 41.2603 75.6657 40.7112 74.988 40.7112H66.959C65.5828 40.7112 64.3621 41.3684 63.5914 42.3896L59.444 47.8934C59.2894 48.099 59.1988 48.3526 59.1988 48.6298C59.1988 49.3053 59.7456 49.8551 60.4218 49.8551H68.4524C69.83 49.8551 71.0523 49.1956 71.8215 48.1751L75.9681 42.6722C76.1219 42.4681 76.2126 42.2137 76.2126 41.9358ZM55.3621 43.1337L54.8351 43.8312C54.6348 44.0932 54.3203 44.2638 53.9616 44.2638L51.9092 44.2623L53.1467 42.6234H55.107C55.2814 42.6234 55.4245 42.7666 55.4245 42.941C55.4245 43.0111 55.4017 43.0789 55.3621 43.1337ZM52.6822 46.6863L52.0638 47.5065C51.865 47.77 51.5498 47.9405 51.1911 47.9405H49.1402L50.4676 46.1768H52.4293C52.6045 46.1768 52.7469 46.3185 52.7469 46.4944C52.7469 46.5675 52.7225 46.6338 52.6822 46.6863ZM57.3215 45.5059C58.3062 45.2843 59.163 44.7139 59.7501 43.9333L60.6998 42.6722C60.8544 42.4681 60.9465 42.2137 60.9465 41.9358C60.9465 41.2603 60.399 40.7112 59.7227 40.7112H49.5888L42.6998 49.8551H53.1848C54.5624 49.8551 55.784 49.1956 56.5531 48.1751L57.5249 46.8851C57.6505 46.7228 57.7206 46.5165 57.7206 46.2972C57.7206 45.972 57.5622 45.6856 57.3215 45.5059Z" fill="#1D439C"/>
</g>
</svg>
