<svg width="133" height="42" viewBox="0 0 133 42" fill="none" xmlns="http://www.w3.org/2000/svg">
<mask id="mask0_7_12109" style="mask-type:luminance" maskUnits="userSpaceOnUse" x="0" y="0" width="133" height="42">
<path d="M0.307983 41.3894H132.614V0.0418243H0.307983V41.3894Z" fill="white"/>
</mask>
<g mask="url(#mask0_7_12109)">
<path d="M120.159 12.7114L112.125 12.7099C110.75 12.7099 109.531 13.3686 108.76 14.3898L104.613 19.8936C104.457 20.0977 104.367 20.3528 104.367 20.6293C104.367 21.3055 104.914 21.8553 105.59 21.8553H113.623C114.999 21.8553 116.222 21.1958 116.991 20.1754L117.987 18.854H119.148L120.598 16.9274H114.445L112.502 19.5044C112.401 19.6401 112.269 19.7503 112.118 19.826C111.966 19.9018 111.799 19.9411 111.629 19.9408H110.215C110.036 19.9408 109.895 19.7976 109.895 19.6225C109.895 19.5494 109.919 19.4831 109.96 19.4321L113.255 15.0585C113.453 14.7927 113.77 14.6236 114.127 14.6236H115.543C115.721 14.6236 115.862 14.7661 115.862 14.9412C115.862 15.0113 115.836 15.0791 115.797 15.1339L115.262 15.8444H120.255L121.138 14.6709C121.291 14.4675 121.383 14.214 121.383 13.936C121.383 13.2597 120.834 12.7114 120.159 12.7114ZM64.6274 15.1337L61.3314 19.505C61.23 19.6406 61.0982 19.7507 60.9467 19.8263C60.7952 19.902 60.628 19.9411 60.4586 19.9405H59.0429C58.8685 19.9405 58.7268 19.7982 58.7268 19.6238C58.7268 19.5491 58.7512 19.4829 58.7893 19.4319L62.0838 15.0598C62.2856 14.797 62.6016 14.6234 62.9572 14.6234H64.3738C64.5497 14.6234 64.6913 14.7666 64.6913 14.941C64.6906 15.0103 64.6683 15.0777 64.6274 15.1337ZM70.2126 13.9358C70.2126 13.2603 69.6657 12.7112 68.988 12.7112H60.959C59.5828 12.7112 58.3621 13.3684 57.5914 14.3896L53.444 19.8934C53.2894 20.099 53.1988 20.3526 53.1988 20.6298C53.1988 21.3053 53.7456 21.8551 54.4218 21.8551H62.4524C63.83 21.8551 65.0523 21.1956 65.8215 20.1751L69.9681 14.6722C70.1219 14.4681 70.2126 14.2137 70.2126 13.9358ZM49.3621 15.1337L48.8351 15.8312C48.6348 16.0932 48.3203 16.2638 47.9616 16.2638L45.9092 16.2623L47.1467 14.6234H49.107C49.2814 14.6234 49.4245 14.7666 49.4245 14.941C49.4245 15.0111 49.4017 15.0789 49.3621 15.1337ZM46.6822 18.6863L46.0638 19.5065C45.865 19.77 45.5498 19.9405 45.1911 19.9405H43.1402L44.4676 18.1768H46.4293C46.6045 18.1768 46.7469 18.3185 46.7469 18.4944C46.7469 18.5675 46.7225 18.6338 46.6822 18.6863ZM51.3215 17.5059C52.3062 17.2843 53.163 16.7139 53.7501 15.9333L54.6998 14.6722C54.8544 14.4681 54.9465 14.2137 54.9465 13.9358C54.9465 13.2603 54.399 12.7112 53.7227 12.7112H43.5888L36.6998 21.8551H47.1848C48.5624 21.8551 49.784 21.1956 50.5531 20.1751L51.5249 18.8851C51.6505 18.7228 51.7206 18.5165 51.7206 18.2972C51.7206 17.972 51.5622 17.6856 51.3215 17.5059Z" fill="#1D439C"/>
</g>
</svg>
