<svg width="144" height="96" viewBox="0 0 144 96" fill="none" xmlns="http://www.w3.org/2000/svg">
<path d="M37.1853 54.7126L27.2936 49.9495V39.4707L37.1853 54.7126ZM37.9718 56.5292L27.2936 52.0209V56.5292H37.9718Z" fill="#98002E"/>
<path d="M17.4019 54.7125L27.2936 39.4707V49.9495L17.4019 54.7125Z" fill="#E31837"/>
<path d="M16.6152 56.5292H27.2934V52.0209L16.6152 56.5292Z" fill="#E31837"/>
<path d="M38.8357 53.4054C39.2234 53.4054 39.5446 53.7155 39.5446 54.1032C39.5446 54.4909 39.2345 54.8122 38.8468 54.8122C38.4591 54.8122 38.1379 54.502 38.1379 54.1143C38.1379 53.7155 38.448 53.4054 38.8357 53.4054ZM38.8357 54.7014C39.168 54.7014 39.4339 54.4355 39.4339 54.1032C39.4339 53.7709 39.168 53.5051 38.8357 53.5051C38.5034 53.5051 38.2376 53.7709 38.2376 54.1032C38.2376 54.4355 38.5034 54.7014 38.8357 54.7014ZM38.6806 54.5131H38.581V53.7045H38.8911C39.0794 53.7045 39.1459 53.782 39.1459 53.926C39.157 54.0479 39.0573 54.1475 38.9465 54.1586L39.1902 54.5131H39.0794L38.8357 54.1586H38.6917L38.6806 54.5131ZM38.6806 54.0589H38.8136C38.9243 54.0589 39.0462 54.0479 39.0462 53.9149C39.0462 53.8152 38.9465 53.782 38.869 53.782H38.6917V54.0589H38.6806Z" fill="#98002E"/>
<path d="M46.3126 54.7125H51.1089C56.0492 54.7125 58.9846 52.1537 58.9846 47.9112C58.9846 43.6688 56.0492 41.1211 51.1089 41.1211H46.3126V54.7125ZM49.3477 43.4805H51.1089C54.3102 43.4805 55.9163 45.0645 55.9163 47.9112C55.9163 50.758 54.3102 52.342 51.1089 52.342H49.3477V43.4805Z" fill="#003D79"/>
<path d="M75.0794 46.4602H69.3083V43.4805H75.8326V41.1211H66.2621V54.7125H76.0431V52.3531H69.3083V48.8196H75.0794V46.4602Z" fill="#003D79"/>
<path d="M87.4855 41.1211H84.4394V54.7125H93.3452V52.3531H87.4855V41.1211Z" fill="#003D79"/>
<path d="M97.5433 43.4805H102.107V54.7125H105.164V43.4805H109.739V41.1211H97.5433V43.4805Z" fill="#003D79"/>
<path d="M127.385 54.7124H124.206L122.876 51.3118H117.349L116.02 54.7124H113.051L118.734 41.0657H121.802L127.385 54.7124ZM122.012 49.03L120.118 44.2004L118.213 49.03H122.012Z" fill="#003D79"/>
</svg>
