<svg width="144" height="96" viewBox="0 0 144 96" fill="none" xmlns="http://www.w3.org/2000/svg">
<path d="M64.0182 48.9571C64.0182 54.2031 59.9142 58.0687 54.8778 58.0687C49.8413 58.0687 45.7374 54.2031 45.7374 48.9571C45.7374 43.6742 49.8413 39.8455 54.8778 39.8455C59.9142 39.8455 64.0182 43.6742 64.0182 48.9571ZM60.0169 48.9571C60.0169 45.6789 57.6384 43.4359 54.8778 43.4359C52.1172 43.4359 49.7386 45.6789 49.7386 48.9571C49.7386 52.2024 52.1172 54.4783 54.8778 54.4783C57.6384 54.4783 60.0169 52.1983 60.0169 48.9571Z" fill="#EA4335"/>
<path d="M83.7367 48.9571C83.7367 54.2031 79.6328 58.0687 74.5963 58.0687C69.5598 58.0687 65.4559 54.2031 65.4559 48.9571C65.4559 43.6783 69.5598 39.8455 74.5963 39.8455C79.6328 39.8455 83.7367 43.6742 83.7367 48.9571ZM79.7355 48.9571C79.7355 45.6789 77.3569 43.4359 74.5963 43.4359C71.8357 43.4359 69.4571 45.6789 69.4571 48.9571C69.4571 52.2024 71.8357 54.4783 74.5963 54.4783C77.3569 54.4783 79.7355 52.1983 79.7355 48.9571Z" fill="#FBBC05"/>
<path d="M102.634 40.3959V56.7542C102.634 63.4831 98.6653 66.2314 93.9739 66.2314C89.5578 66.2314 86.8999 63.2777 85.8975 60.8622L89.3811 59.4121C90.0014 60.8951 91.5214 62.6451 93.9698 62.6451C96.9728 62.6451 98.8337 60.7924 98.8337 57.3046V55.9942H98.694C97.7985 57.0992 96.0731 58.0646 93.8958 58.0646C89.34 58.0646 85.1663 54.0963 85.1663 48.99C85.1663 43.8467 89.34 39.8455 93.8958 39.8455C96.069 39.8455 97.7944 40.8108 98.694 41.883H98.8337V40.4H102.634V40.3959ZM99.1172 48.99C99.1172 45.7816 96.9769 43.4359 94.2533 43.4359C91.4926 43.4359 89.1798 45.7816 89.1798 48.99C89.1798 52.1655 91.4926 54.4783 94.2533 54.4783C96.9769 54.4783 99.1172 52.1655 99.1172 48.99Z" fill="#4285F4"/>
<path d="M108.898 30.8079V57.5101H104.996V30.8079H108.898Z" fill="#34A853"/>
<path d="M124.106 51.956L127.212 54.0265C126.21 55.5095 123.794 58.0647 119.62 58.0647C114.444 58.0647 110.579 54.0635 110.579 48.9531C110.579 43.5346 114.477 39.8414 119.173 39.8414C123.901 39.8414 126.214 43.6044 126.97 45.6379L127.385 46.6731L115.204 51.7178C116.137 53.5459 117.587 54.4784 119.62 54.4784C121.658 54.4784 123.071 53.476 124.106 51.956ZM114.547 48.6778L122.689 45.2969C122.241 44.159 120.894 43.3661 119.308 43.3661C117.275 43.3661 114.444 45.1613 114.547 48.6778Z" fill="#EA4335"/>
<path d="M30.9647 46.5868V42.7211H43.9913C44.1187 43.3948 44.1844 44.1918 44.1844 45.0545C44.1844 47.9547 43.3916 51.5411 40.8364 54.0963C38.351 56.6843 35.1755 58.0646 30.9689 58.0646C23.1718 58.0646 16.6154 51.7136 16.6154 43.9165C16.6154 36.1195 23.1718 29.7684 30.9689 29.7684C35.2823 29.7684 38.3551 31.4609 40.6638 33.667L37.9361 36.3947C36.2806 34.8419 34.0376 33.6341 30.9647 33.6341C25.271 33.6341 20.8179 38.2228 20.8179 43.9165C20.8179 49.6103 25.271 54.199 30.9647 54.199C34.6579 54.199 36.7612 52.716 38.1086 51.3685C39.2014 50.2758 39.9203 48.7147 40.2037 46.5826L30.9647 46.5868Z" fill="#4285F4"/>
</svg>
