<svg width="144" height="96" viewBox="0 0 144 96" fill="none" xmlns="http://www.w3.org/2000/svg">
<mask id="mask0_7_12117" style="mask-type:luminance" maskUnits="userSpaceOnUse" x="16" y="25" width="112" height="46">
<path d="M16.6154 25.7354V34.9293H22.8115V61.071H16.7841V70.1542H38.3455V61.071H32.1492V34.9293H38.1767V25.7354H16.6154ZM77.9842 25.8461V34.9293H84.1805V61.071H78.153V70.1542H93.518V44.8809L102.674 70.1453L102.86 70.1497L111.851 44.8809V70.1542H127.385V61.071H121.188V34.9293H127.216V25.8461H109.899L102.729 46.1049L95.4688 25.8461H77.9842Z" fill="white"/>
<path d="M41.2319 25.8462V34.9293H47.428V49.3295H71.2779V46.5682C71.2779 46.5682 73.273 45.0127 73.9087 43.5367L75.1851 40.6728C75.1851 40.6728 75.778 39.0697 75.778 37.6371L75.5226 34.7732C75.5226 34.7732 75.1221 32.44 74.4236 31.746L71.9572 28.8776C71.9572 28.8776 68.8187 25.8462 64.662 25.8462H41.2319ZM56.7652 34.9293H65.8474V43.3479H56.7652V34.9293Z" fill="white"/>
<path d="M41.2319 70.1543V61.0711H47.428V46.671H71.2779V49.4323C71.2779 49.4323 73.273 50.9877 73.9087 52.4638L75.1851 55.3277C75.1851 55.3277 75.778 56.9308 75.778 58.3634L75.5226 61.2273C75.5226 61.2273 75.1221 63.5605 74.4236 64.2545L71.9572 67.1229C71.9572 67.1229 68.8187 70.1543 64.662 70.1543H41.2319ZM56.7652 61.0711H65.8474V52.6526H56.7652V61.0711Z" fill="white"/>
</mask>
<g mask="url(#mask0_7_12117)">
<path d="M16.6154 27.3618H130.709V33.2583H16.6154M16.6154 39.1548H124.616V45.0525H16.6154V50.9479H124.616V56.8433H16.6154M16.6154 62.7409H130.709V68.6385H16.6154" stroke="#1F70C1" stroke-width="3.03178"/>
</g>
</svg>
