<svg width="144" height="96" viewBox="0 0 144 96" fill="none" xmlns="http://www.w3.org/2000/svg">
<path d="M87.4875 46.8024C87.0997 46.9281 86.5697 47.0347 85.9113 47.1169C85.5977 47.1579 85.2486 47.1786 84.84 47.1786C84.1539 47.1786 83.4106 47.1239 82.6908 47.0677L82.666 47.0668C81.9991 47.0164 81.3682 46.9691 80.763 46.9691C80.3306 46.9691 79.9343 46.9946 79.5542 47.0432C78.4233 47.1837 77.5315 47.5388 77.5315 47.5388L77.5412 47.4469C77.7603 45.179 79.666 43.2428 81.9717 42.9366C82.1877 42.911 82.405 42.898 82.6225 42.8976C84.795 42.8976 86.9019 44.5446 87.528 46.7323L87.5437 46.789L87.4875 46.8024ZM90.142 47.7653L90.1412 47.7343C90.1313 47.5885 90.1035 47.3526 90.0728 47.099C90.0138 46.641 89.9138 46.1892 89.774 45.7491C88.7254 42.4413 85.9182 40.3067 82.6225 40.3067C82.2937 40.3067 81.9538 40.3275 81.6187 40.3732C77.3922 40.9171 74.5217 44.7475 75.0806 49.0934C75.5891 53.0278 78.7544 55.7232 82.6068 55.7232C82.9319 55.7232 83.2704 55.7008 83.6122 55.6596C85.6653 55.3988 87.4693 54.5388 88.8208 52.8665C88.897 52.7713 88.9346 52.6497 88.9205 52.5406C88.9082 52.4438 88.8515 52.3517 88.7493 52.2778C88.5226 52.1147 87.7133 51.7223 87.2731 51.5124C87.1436 51.4474 87.039 51.3974 86.9812 51.3685C86.8477 51.2998 86.752 51.2689 86.6649 51.2689C86.558 51.2689 86.4565 51.3235 86.358 51.4436C85.4866 52.4561 84.384 52.9884 83.2576 53.1362C83.034 53.1636 82.8174 53.1781 82.6068 53.1781C80.5537 53.1781 78.4816 51.8034 77.8801 49.9165L77.8651 49.8672L77.9092 49.8457C78.0159 49.7928 78.9767 49.3455 80.4005 49.3455C80.577 49.3455 80.7569 49.3526 80.9325 49.3683C81.3409 49.4006 81.7511 49.4534 82.1837 49.5083C82.9821 49.6138 83.81 49.7234 84.7764 49.7234C85.3714 49.7226 85.9656 49.6804 86.5547 49.597C88.9048 49.1441 89.8372 48.485 89.8446 48.4792C90.1763 48.2644 90.164 48.0865 90.1418 47.7653M126.957 41.1727C126.957 40.9753 126.795 40.8165 126.6 40.8165H124.655C124.461 40.8165 124.301 40.9753 124.301 41.1727V55.0025C124.301 55.1979 124.461 55.3594 124.655 55.3594H126.6C126.795 55.3594 126.957 55.1979 126.957 55.0025V41.1727ZM125.629 35.8839C124.662 35.8839 123.873 36.6733 123.873 37.6418C123.873 38.6079 124.662 39.3956 125.629 39.3956C126.598 39.3956 127.385 38.6079 127.385 37.6418C127.385 36.6733 126.598 35.8839 125.629 35.8839ZM99.8811 42.9332C102.638 42.9332 104.798 45.2018 104.798 48.0997C104.798 51.0148 102.748 53.2111 100.029 53.2111C98.6567 53.2111 97.3843 52.7187 96.4532 51.8269C95.4927 50.91 94.9658 49.6152 94.9658 48.1866C94.9658 45.2897 97.1705 42.9332 99.8811 42.9332ZM99.7949 55.7279C99.9176 55.733 100.045 55.738 100.169 55.738C102.167 55.738 104.024 54.9665 105.404 53.576C106.804 52.1584 107.572 50.2146 107.572 48.0997C107.572 43.7301 104.208 40.3067 99.9125 40.3067C96.4169 40.3067 93.4662 42.6084 92.5639 46.0325C92.4104 46.6138 92.2516 48.0963 92.2516 49.5748V60.4262C92.2516 60.624 92.4104 60.785 92.6082 60.785H94.5375C94.7368 60.785 94.8983 60.622 94.8983 60.4233L94.8968 53.5876L94.998 53.6862C95.9456 54.6067 97.703 55.6298 99.7949 55.7279ZM65.2183 42.9332C67.9723 42.9332 70.1332 45.2018 70.1332 48.0997C70.1332 51.0148 68.0843 53.2111 65.3635 53.2111C63.9873 53.2111 62.7207 52.7187 61.7904 51.8269C60.8283 50.91 60.2989 49.6152 60.2989 48.1866C60.2989 45.2897 62.5055 42.9332 65.2183 42.9332ZM65.1327 55.7279C65.2557 55.733 65.3823 55.738 65.5039 55.738C67.5044 55.738 69.3624 54.9665 70.7401 53.576C72.1397 52.1584 72.9105 50.2146 72.9105 48.0997C72.9105 43.7301 69.5436 40.3067 65.2472 40.3067C61.753 40.3067 58.7991 42.6084 57.899 46.0325C57.7427 46.6138 57.5863 48.0963 57.5863 49.5748V60.4262C57.5863 60.624 57.7467 60.785 57.9396 60.785H59.8746C60.0731 60.785 60.2346 60.622 60.2346 60.4233L60.2315 53.5876L60.3291 53.6862C61.2772 54.6067 63.0346 55.6298 65.1327 55.7279ZM109.431 53.3054C111.111 54.8426 112.946 55.7207 115.328 55.7207H115.403C119.515 55.6941 121.353 53.4465 121.353 51.2321C121.353 48.1692 118.463 47.332 117.577 47.1463C117.293 47.091 116.998 47.0354 116.695 46.9751C115.979 46.8374 115.236 46.6951 114.561 46.5085C114.088 46.3786 112.545 45.8645 112.545 44.7106C112.545 43.4404 113.954 42.7556 115.278 42.7556C116.391 42.7556 117.318 42.9429 118.505 43.8696C118.598 43.9426 118.728 44.0264 118.887 44.0264C119.004 44.0264 119.117 43.9857 119.238 43.8992C119.566 43.657 120.168 43.1499 120.565 42.7527C120.658 42.6579 120.702 42.5542 120.696 42.4458C120.687 42.2773 120.562 42.1395 120.498 42.0865C118.911 40.8275 117.383 40.3123 115.23 40.3067H115.214C112.133 40.3067 109.808 42.2869 109.808 44.9124C109.808 46.9928 111.518 48.4705 114.618 49.0793L116.56 49.4514C117.836 49.6857 118.553 50.3632 118.528 51.3121C118.505 52.2368 117.371 53.1945 115.508 53.1945C113.986 53.1945 112.647 52.6006 111.524 51.5818L111.508 51.5657C111.428 51.494 111.334 51.4062 111.206 51.4062C111.117 51.4062 111.023 51.4476 110.921 51.5271C110.804 51.6221 109.507 52.6472 109.369 52.7922C109.305 52.8603 109.276 52.9322 109.277 53.0077C109.28 53.1275 109.359 53.2393 109.431 53.3054Z" fill="#2151A1"/>
<path d="M46.801 60.5036C39.897 67.4091 28.6992 67.4082 21.7957 60.5036C14.8886 53.5972 14.8886 42.4002 21.7957 35.496C28.7007 28.5912 39.897 28.5912 46.7996 35.4967C53.7067 42.4 53.7067 53.597 46.801 60.5036Z" fill="white"/>
<path d="M48.0632 39.0768C48.4031 40.1756 48.576 41.3193 48.5762 42.4695C48.5762 46.2791 46.7029 49.629 43.8539 51.7281C38.9002 55.3766 31.68 55.3815 21.7106 58.5229C24.7196 62.1192 29.2411 64.4082 34.2976 64.4082C43.3602 64.4082 50.7063 57.0621 50.7063 48C50.7063 44.7103 49.7325 41.6476 48.0632 39.0768Z" fill="#2151A1"/>
<path d="M44.1381 34.8713C41.3961 32.8104 37.9898 31.5913 34.298 31.5913C25.2359 31.5913 17.89 38.939 17.89 48C17.89 51.6474 19.0799 55.0162 21.0925 57.7402C32.1282 54.5267 40.8419 45.8701 44.1381 34.8713Z" fill="#EB1933"/>
</svg>
