<svg width="144" height="96" viewBox="0 0 144 96" fill="none" xmlns="http://www.w3.org/2000/svg">
<path d="M23.9679 51.4057C24.1203 51.7885 24.072 52.2792 23.9976 52.5765C23.8675 53.1044 23.5107 53.6433 22.455 53.6433C21.4663 53.6433 20.8641 53.0709 20.8641 52.2085V50.6734H16.6155V51.8926C16.6155 55.4238 19.3921 56.4906 22.3695 56.4906C25.2317 56.4906 27.5883 55.5168 27.9637 52.8739C28.157 51.506 28.0158 50.6102 27.9489 50.2794C27.2798 46.9637 21.273 45.975 20.8232 44.1202C20.7608 43.8466 20.7557 43.5631 20.8084 43.2875C20.9199 42.7783 21.2656 42.2244 22.2543 42.2244C23.1836 42.2244 23.7226 42.7969 23.7226 43.6592V44.6405H27.6738V43.5254C27.6738 40.076 24.5775 39.537 22.3398 39.537C19.5222 39.537 17.2214 40.47 16.8013 43.0534C16.6898 43.7596 16.6712 44.3915 16.8385 45.187C17.5262 48.4208 23.1501 49.3575 23.9679 51.4057Z" fill="#034EA2"/>
<path d="M33.5654 40.0425L30.6289 55.8736H34.9073L37.0743 41.5071H37.1635L39.2711 55.8736H43.5272L40.6093 40.0388L33.5654 40.0425ZM57.4849 40.0425L55.5334 52.1454H55.4405L53.4927 40.0425H47.0361L46.6867 55.8736H50.6491L50.7458 41.6409H50.835L53.4778 55.8736H57.496L60.1426 41.6446H60.2281L60.3284 55.8736H64.2871L63.9377 40.0388L57.4849 40.0425Z" fill="#034EA2"/>
<path d="M75.4383 51.3759C75.5907 51.7587 75.5424 52.2494 75.4681 52.5467C75.338 53.0746 74.9811 53.6136 73.9255 53.6136C72.9367 53.6136 72.3346 53.0411 72.3346 52.1788V50.6436H68.0859V51.8628C68.0859 55.394 70.8626 56.4608 73.84 56.4608C76.7021 56.4608 79.0588 55.487 79.4342 52.8441C79.6275 51.4762 79.4862 50.5804 79.4193 50.2496C78.7503 46.9339 72.7434 45.9452 72.2937 44.0904C72.2312 43.8168 72.2262 43.5333 72.2788 43.2577C72.3903 42.7485 72.736 42.1947 73.7248 42.1947C74.654 42.1947 75.193 42.7671 75.193 43.6295V44.6108H79.1443V43.4956C79.1443 40.0462 76.0479 39.5072 73.8103 39.5072C70.9927 39.5072 68.6918 40.4402 68.2718 43.0236C68.1603 43.7298 68.1417 44.3617 68.309 45.1572C68.9966 48.391 74.6206 49.3278 75.4383 51.3759Z" fill="#034EA2"/>
<path d="M88.7269 53.502C89.8272 53.502 90.1654 52.7437 90.2435 52.3571C90.2769 52.1861 90.2806 51.9557 90.2806 51.7512V40.0424H94.2877V51.3907C94.2884 51.7379 94.276 52.0851 94.2505 52.4314C93.9717 55.3865 91.6374 56.3455 88.7269 56.3455C85.8127 56.3455 83.4784 55.3865 83.1996 52.4314C83.1885 52.2753 83.1587 51.6806 83.1624 51.3907V40.0387H87.1694V51.7475C87.1657 51.9557 87.1732 52.1861 87.2066 52.3571C87.281 52.7437 87.6229 53.502 88.7269 53.502ZM108.086 40.0424L108.301 52.4686H108.216L104.573 40.0424H98.6999V55.7062H102.592L102.376 42.8488H102.462L106.368 55.7062H112.007V40.0424H108.086ZM121.746 53.3384C122.891 53.3384 123.292 52.6136 123.363 52.1861C123.396 52.0114 123.4 51.7884 123.4 51.5914V49.2868H121.776V46.9822H127.385V51.2271C127.385 51.5245 127.377 51.7401 127.329 52.2679C127.069 55.1524 124.567 56.182 121.761 56.182C118.954 56.182 116.456 55.1524 116.192 52.2679C116.148 51.7401 116.137 51.5245 116.137 51.2271V44.5661C116.137 44.2836 116.174 43.7855 116.204 43.5253C116.557 40.5628 118.954 39.6112 121.761 39.6112C124.567 39.6112 127.028 40.5553 127.318 43.5216C127.37 44.0271 127.355 44.5624 127.355 44.5624V45.0939H123.363V44.2055C123.363 44.2055 123.363 43.8338 123.314 43.6034C123.24 43.254 122.943 42.4511 121.731 42.4511C120.579 42.4511 120.24 43.2131 120.155 43.6034C120.107 43.8115 120.088 44.094 120.088 44.3505V51.5877C120.088 51.7884 120.095 52.0114 120.125 52.1898C120.199 52.6136 120.601 53.3384 121.746 53.3384Z" fill="#034EA2"/>
</svg>
