<svg width="144" height="96" viewBox="0 0 144 96" fill="none" xmlns="http://www.w3.org/2000/svg">
<path d="M26.6473 49.5319H19.2348V47.6927H28.793C28.5422 46.9124 27.7341 46.1879 26.3129 46.1879H19.3741C17.7857 46.1879 16.8662 46.7731 16.8662 48.055V49.4204C16.8662 50.5351 17.8136 51.176 19.2069 51.176H26.703V53.1267H16.6154C16.8662 54.1856 17.6743 54.7429 19.1233 54.7429H26.6752C28.2635 54.7429 29.0438 54.1299 29.0438 52.8201V51.4547C29.0438 50.2564 28.1242 49.6155 26.6473 49.5319ZM41.7788 46.2158H32.6386V54.7708H35.2302V51.4825H41.9738C43.8409 51.4825 44.872 50.8416 44.872 49.3368V48.3894C44.8441 46.996 43.6737 46.2158 41.7788 46.2158ZM42.6148 48.9467C42.6148 49.5598 42.5033 49.8942 41.5001 49.8942H35.2302L35.258 47.6648H41.3886C42.5033 47.6648 42.6426 47.9992 42.6426 48.5844V48.9467H42.6148ZM53.4827 51.4268H47.9651L46.5997 52.8759H54.5695L55.9349 54.7708H59.0003L52.3959 45.8535L50.8354 47.7763L53.4827 51.4268ZM63.9605 47.6927H73.658C73.4072 46.6895 72.4319 46.1879 71.0386 46.1879H63.7933C62.5393 46.1879 61.341 46.6895 61.341 48.055V52.848C61.341 54.2135 62.5393 54.7151 63.7933 54.7151H71.1222C72.7942 54.7151 73.3794 54.2413 73.658 53.0988H63.9605V47.6927ZM85.0275 50.5351V49.086H77.1971V54.7708H88.7617V53.1545H79.8165V50.5351H85.0275ZM77.4757 46.2158H89.1518V47.7206H77.4757V46.2158ZM96.3413 46.2158H92.2728L97.0659 49.727C97.7625 49.2532 98.5706 48.7516 99.2952 48.3336L96.3413 46.2158ZM102.249 50.5908C101.552 51.0645 100.856 51.594 100.187 52.0956L103.81 54.7429H107.906L102.249 50.5908Z" fill="black"/>
<path d="M127.385 41.2275C105.091 42.5094 94.7809 52.0397 92.4679 54.2969L91.9942 54.7428H96.1184C107.265 43.5683 123.288 41.5898 127.385 41.2275Z" fill="black"/>
</svg>
