<svg width="144" height="96" viewBox="0 0 144 96" fill="none" xmlns="http://www.w3.org/2000/svg">
<path d="M22.9883 56.2364C23.4564 57.4786 24.1045 58.5408 24.9326 59.4228C25.7608 60.305 26.7419 60.9801 27.876 61.4482C29.0102 61.9163 30.2434 62.1503 31.5756 62.1503C32.8719 62.1503 34.087 61.9072 35.2212 61.4211C36.3555 60.9349 37.3455 60.2509 38.1916 59.3688C39.0377 58.4866 39.6949 57.4336 40.163 56.2094C40.6311 54.9852 40.8651 53.6171 40.8651 52.1048V28.7732H46.5359V66.5789H40.9191V63.0683C39.6589 64.4004 38.1736 65.4266 36.4634 66.1469C34.753 66.8669 32.9079 67.227 30.9276 67.227C28.9112 67.227 27.0299 66.8759 25.2836 66.1738C23.5374 65.4717 22.0251 64.4726 20.747 63.1764C19.4689 61.8801 18.4606 60.3231 17.7226 58.5047C16.9844 56.6864 16.6154 54.6612 16.6154 52.4287V28.7732H22.2862V52.1048C22.2862 53.6171 22.5202 54.9941 22.9883 56.2364ZM56.3109 28.7732V42.5452C57.5711 41.2851 59.0294 40.286 60.6856 39.5478C62.3418 38.8097 64.1421 38.4406 66.0864 38.4406C68.1028 38.4406 69.9928 38.8186 71.7572 39.5747C73.5214 40.3308 75.0516 41.357 76.3478 42.6533C77.6441 43.9495 78.6703 45.4797 79.4264 47.2439C80.1825 49.0083 80.5605 50.8806 80.5605 52.8609C80.5605 54.841 80.1825 56.7044 79.4264 58.4506C78.6703 60.1969 77.6441 61.7182 76.3478 63.0142C75.0516 64.3105 73.5214 65.3366 71.7572 66.0927C69.9928 66.8489 68.1026 67.2268 66.0864 67.2268C64.142 67.2268 62.3328 66.8578 60.6586 66.1196C58.9843 65.3816 57.5171 64.3824 56.2569 63.1222V66.5788H50.8561V28.7732H56.3109ZM56.932 56.5874C57.418 57.7396 58.0932 58.7478 58.9573 59.6119C59.8215 60.476 60.8296 61.1602 61.9817 61.6643C63.134 62.1683 64.3761 62.4204 65.7084 62.4204C67.0046 62.4204 68.2287 62.1683 69.3809 61.6643C70.533 61.1602 71.5321 60.4762 72.3784 59.6119C73.2245 58.7479 73.8996 57.7396 74.4036 56.5874C74.9077 55.4352 75.1597 54.1931 75.1597 52.8609C75.1597 51.5286 74.9077 50.2774 74.4036 49.1072C73.8996 47.937 73.2245 46.9199 72.3784 46.0558C71.5322 45.1918 70.5331 44.5166 69.3809 44.0306C68.2286 43.5445 67.0045 43.3013 65.7084 43.3013C64.4122 43.3013 63.188 43.5444 62.0359 44.0306C60.8837 44.5167 59.8756 45.1918 59.0113 46.0558C58.1473 46.9199 57.4632 47.937 56.9591 49.1072C56.455 50.2774 56.203 51.5286 56.203 52.8609C56.2029 54.1931 56.4459 55.4352 56.932 56.5874ZM83.6385 47.298C84.3585 45.5698 85.3488 44.0486 86.6089 42.7344C87.8689 41.4202 89.3633 40.3851 91.0916 39.629C92.8199 38.8729 94.6921 38.4949 96.7084 38.4949C98.6887 38.4949 100.525 38.8549 102.217 39.575C103.91 40.2951 105.368 41.2943 106.592 42.5725C107.816 43.8506 108.77 45.3629 109.454 47.1091C110.138 48.8554 110.48 50.7547 110.48 52.8071V54.5894H88.0672C88.2473 55.7055 88.6073 56.7407 89.1474 57.6947C89.6875 58.6488 90.3625 59.477 91.1726 60.1791C91.9827 60.8813 92.9009 61.4304 93.9271 61.8263C94.9532 62.2224 96.0423 62.4205 97.1946 62.4205C100.471 62.4205 103.118 61.0702 105.134 58.3698L109.076 61.2862C107.708 63.1225 106.016 64.5627 104 65.6068C101.983 66.651 99.715 67.1731 97.1947 67.1731C95.1423 67.1731 93.2251 66.8129 91.4428 66.0929C89.6605 65.3729 88.1123 64.3646 86.7981 63.0683C85.484 61.7721 84.4488 60.2509 83.6927 58.5047C82.9366 56.7585 82.5585 54.8591 82.5585 52.8068C82.5583 50.8626 82.9184 49.0263 83.6385 47.298ZM91.2266 45.1647C89.6964 46.4429 88.6793 48.1441 88.1752 50.2684H104.972C104.504 48.1441 103.505 46.4429 101.974 45.1647C100.444 43.8866 98.6527 43.2474 96.6005 43.2474C94.5481 43.2474 92.7569 43.8866 91.2266 45.1647ZM120.688 45.7857C119.536 47.0459 118.959 48.7561 118.959 50.9165V66.579H113.505V39.0348H118.905V42.4373C119.589 41.3212 120.481 40.439 121.579 39.7909C122.677 39.1427 123.982 38.8186 125.494 38.8186H127.385V43.8954H125.116C123.316 43.8955 121.84 44.5255 120.688 45.7857Z" fill="#010202"/>
</svg>
