<svg width="144" height="96" viewBox="0 0 144 96" fill="none" xmlns="http://www.w3.org/2000/svg">
<path d="M80.8616 48.8532C80.8616 46.2302 79.7388 43.9128 75.9416 43.9128C73.9934 43.9128 72.4458 44.4681 71.6067 44.9541L72.2217 47.0584C72.9942 46.5737 74.2269 46.1746 75.3904 46.1746C77.3128 46.1719 77.6277 47.2593 77.6277 47.9585V48.1268C73.4313 48.1201 70.7786 49.57 70.7786 52.5228C70.7786 54.327 72.1253 56.0186 74.4795 56.0186C75.9158 56.0186 77.1295 55.4389 77.8544 54.5239H77.925C77.925 54.5239 78.403 56.5237 81.0462 55.7593C80.9118 54.9217 80.8616 54.0393 80.8616 52.9667V48.8532ZM77.7309 51.6227C77.7309 51.8345 77.7133 52.0544 77.6508 52.2431C77.4091 53.0509 76.5756 53.727 75.5383 53.727C74.6628 53.727 73.9757 53.2314 73.9757 52.1929C73.9757 50.6045 75.7297 50.1673 77.7309 50.1782M16.6154 40.344C16.6154 40.344 19.3564 51.5579 19.7922 53.3744C20.3053 55.4977 21.2245 56.2824 23.8772 55.7597L25.5905 48.8061C26.0236 47.0832 26.3182 45.8478 26.5979 44.0924H26.6454C26.8395 45.8655 27.1192 47.0832 27.4735 48.8115C27.4735 48.8115 28.1727 51.9706 28.5352 53.6256C28.8881 55.2805 29.8819 56.3245 32.4845 55.7597L36.5628 40.344H33.2705L31.8709 47.0127C31.5002 48.9445 31.1635 50.4664 30.9015 52.2367H30.854C30.6178 50.4854 30.3177 49.026 29.9322 47.1335L28.4822 40.344H25.0475L23.4998 46.9597C23.0585 48.9798 22.6459 50.5994 22.3865 52.3141H22.3417C22.0743 50.7053 21.7118 48.6567 21.3276 46.7126C21.3276 46.7126 20.4085 41.9759 20.084 40.344M45.7376 48.8532C45.7376 46.2302 44.612 43.9128 40.8148 43.9128C38.8721 43.9128 37.3217 44.4681 36.4827 44.9541L37.0977 47.0584C37.8675 46.5737 39.0989 46.1746 40.2664 46.1746C42.1888 46.1719 42.5037 47.2593 42.5037 47.9585V48.1268C38.3074 48.1201 35.6519 49.57 35.6519 52.5228C35.6519 54.327 37.0041 56.0186 39.3473 56.0186C40.7972 56.0186 42.0001 55.4389 42.725 54.5239H42.7983C42.7983 54.5239 43.2789 56.5237 45.9194 55.7593C45.7837 54.9217 45.7376 54.0393 45.7376 52.9667V48.8532ZM42.6042 51.6227C42.6042 51.8345 42.5866 52.0544 42.5268 52.2431C42.2824 53.0509 41.4489 53.727 40.4089 53.727C39.5387 53.727 38.849 53.2314 38.849 52.1929C38.849 50.6045 40.603 50.1673 42.6042 50.1782M50.5793 55.7543V40.344H47.446V55.7543H50.5793ZM90.4783 40.344V51.7141C90.4783 53.2834 90.7728 54.3777 91.4069 55.0484C91.9635 55.6362 92.8744 56.0191 93.9592 56.0191C94.8905 56.0191 95.8014 55.8398 96.2318 55.6837L96.1938 53.2359C95.872 53.3106 95.5041 53.3744 94.9991 53.3744C93.9293 53.3744 93.5764 52.697 93.5764 51.2878V46.9353H96.3051V43.9905H93.5764V40.344M82.3796 44.1802V55.7593H85.6188V49.8293C85.6188 49.5102 85.6391 49.2346 85.6894 48.9794C85.9311 47.7291 86.88 46.9376 88.2472 46.9376C88.6286 46.9376 88.8879 46.9796 89.1758 47.0244V43.9888C88.9341 43.9454 88.7699 43.9223 88.4725 43.9223C87.2602 43.9223 85.8862 44.6921 85.3065 46.3687H85.2265V44.1802M52.3989 44.1802V55.7593H55.5552V48.9631C55.5552 48.6441 55.5905 48.3182 55.7032 48.0237C55.9599 47.3354 56.5966 46.5384 57.6188 46.5384C58.8895 46.5384 59.4896 47.6109 59.4896 49.1586V55.7593H62.638V48.8817C62.638 48.5816 62.6801 48.2137 62.7682 47.9476C63.0208 47.167 63.7104 46.5384 64.6635 46.5384C65.9478 46.5384 66.5696 47.5879 66.5696 49.4125V55.7593H69.7151V48.9319C69.7151 45.3451 67.8905 43.9223 65.8188 43.9223C64.9079 43.9223 64.1829 44.1463 63.5312 44.5482C62.98 44.8862 62.4968 45.3627 62.0637 45.9859H62.0161C61.5179 44.7396 60.3477 43.9223 58.8189 43.9223C56.8586 43.9223 55.968 44.912 55.444 45.7483H55.3964V44.1802" fill="#0071CE"/>
<path d="M113.257 43.6606C113.877 43.6606 114.398 43.3375 114.466 42.922L115.079 35.9711C115.079 35.2827 114.269 34.7194 113.257 34.7194C112.241 34.7194 111.435 35.2827 111.435 35.9711L112.055 42.922C112.12 43.3375 112.638 43.6606 113.257 43.6606ZM109.492 45.8356C109.799 45.2926 109.781 44.6898 109.45 44.421L103.721 40.4147C103.125 40.0671 102.233 40.4812 101.723 41.3582C101.214 42.2339 101.317 43.2168 101.901 43.5576L108.243 46.4981C108.649 46.6502 109.18 46.3678 109.492 45.8302M117.022 45.8299C117.346 46.3675 117.877 46.6499 118.272 46.506L124.615 43.5573C125.204 43.2097 125.292 42.2363 124.794 41.3606C124.285 40.4836 123.387 40.0723 122.793 40.413L117.062 44.4153C116.745 44.6882 116.722 45.2937 117.028 45.8353M113.257 52.3432C113.877 52.3432 114.398 52.6663 114.466 53.0817L115.079 60.0327C115.079 60.721 114.269 61.279 113.257 61.279C112.241 61.279 111.435 60.721 111.435 60.0327L112.055 53.0817C112.12 52.6663 112.638 52.3432 113.257 52.3432ZM117.022 50.1743C117.346 49.6353 117.877 49.3475 118.272 49.5036L124.615 52.4469C125.204 52.7877 125.292 53.7692 124.794 54.6463C124.285 55.5165 123.387 55.9305 122.793 55.5898L117.062 51.5821C116.745 51.312 116.722 50.7092 117.028 50.1743M109.492 50.1683C109.799 50.71 109.781 51.3114 109.45 51.5829L103.721 55.5838C103.125 55.9314 102.233 55.5159 101.723 54.6457C101.214 53.77 101.317 52.7872 101.901 52.4464L108.243 49.5031C108.649 49.3483 109.18 49.6334 109.492 50.1683ZM126.471 54.9798H126.55C126.657 54.9798 126.7 55.0138 126.713 55.0993C126.736 55.1944 126.748 55.2581 126.771 55.2853H126.975C126.957 55.2649 126.934 55.2133 126.922 55.0939C126.898 54.9907 126.846 54.9323 126.771 54.9119V54.893C126.874 54.8698 126.934 54.8006 126.934 54.7151C126.934 54.6377 126.898 54.582 126.863 54.5467C126.795 54.5142 126.73 54.4884 126.586 54.4884C126.459 54.4884 126.365 54.4992 126.29 54.5169V55.2853H126.471V54.9798ZM126.476 54.6295L126.569 54.6174C126.677 54.6174 126.736 54.6676 126.736 54.7382C126.736 54.8169 126.657 54.8536 126.556 54.8536H126.476V54.6295ZM126.592 54.1082C126.146 54.1082 125.793 54.4558 125.793 54.8821C125.793 55.3192 126.146 55.6668 126.592 55.6668C127.042 55.6668 127.385 55.3192 127.385 54.8821C127.385 54.4558 127.042 54.1082 126.592 54.1082ZM126.592 54.2644C126.934 54.2644 127.188 54.5413 127.188 54.8821C127.188 55.2256 126.934 55.5107 126.592 55.5052C126.25 55.5052 125.99 55.2256 125.99 54.8821C125.99 54.5413 126.25 54.2644 126.586 54.2644" fill="#FCB61A"/>
</svg>
