<svg width="384" height="214" viewBox="0 0 384 214" fill="none" xmlns="http://www.w3.org/2000/svg">
<path d="M192 7.5C185.572 7.5 179.289 9.40609 173.944 12.9772C168.599 16.5484 164.434 21.6242 161.974 27.5628C159.514 33.5014 158.87 40.0361 160.124 46.3404C161.379 52.6448 164.474 58.4358 169.019 62.981C173.564 67.5262 179.355 70.6215 185.66 71.8755C191.964 73.1295 198.499 72.4859 204.437 70.0261C210.376 67.5662 215.452 63.4006 219.023 58.056C222.594 52.7114 224.5 46.4279 224.5 40C224.491 31.3833 221.064 23.122 214.971 17.0291C208.878 10.9361 200.617 7.5091 192 7.5ZM192 67.5C186.561 67.5 181.244 65.8872 176.722 62.8654C172.199 59.8437 168.675 55.5488 166.593 50.5238C164.512 45.4988 163.967 39.9695 165.028 34.635C166.09 29.3005 168.709 24.4005 172.555 20.5546C176.401 16.7086 181.301 14.0895 186.635 13.0284C191.97 11.9673 197.499 12.5119 202.524 14.5933C207.549 16.6747 211.844 20.1995 214.865 24.7218C217.887 29.2442 219.5 34.561 219.5 40C219.492 47.2909 216.592 54.2808 211.436 59.4363C206.281 64.5918 199.291 67.4917 192 67.5ZM177 33.75C177 33.0083 177.22 32.2833 177.632 31.6666C178.044 31.0499 178.63 30.5693 179.315 30.2855C180 30.0016 180.754 29.9274 181.482 30.0721C182.209 30.2167 182.877 30.5739 183.402 31.0983C183.926 31.6228 184.283 32.291 184.428 33.0184C184.573 33.7458 184.498 34.4998 184.215 35.1851C183.931 35.8703 183.45 36.456 182.833 36.868C182.217 37.2801 181.492 37.5 180.75 37.5C179.755 37.5 178.802 37.1049 178.098 36.4017C177.395 35.6984 177 34.7446 177 33.75ZM209.5 33.75C209.5 34.413 209.237 35.0489 208.768 35.5178C208.299 35.9866 207.663 36.25 207 36.25H199.5C198.837 36.25 198.201 35.9866 197.732 35.5178C197.263 35.0489 197 34.413 197 33.75C197 33.087 197.263 32.4511 197.732 31.9822C198.201 31.5134 198.837 31.25 199.5 31.25H207C207.663 31.25 208.299 31.5134 208.768 31.9822C209.237 32.4511 209.5 33.087 209.5 33.75ZM206.663 48.75C203.447 54.3094 198.103 57.5 192 57.5C185.897 57.5 180.553 54.3125 177.334 48.75C177.17 48.4656 177.064 48.1517 177.021 47.8261C176.978 47.5005 177 47.1697 177.085 46.8526C177.17 46.5354 177.316 46.2381 177.516 45.9776C177.716 45.7171 177.966 45.4985 178.25 45.3344C178.534 45.1702 178.848 45.0637 179.174 45.0209C179.499 44.978 179.83 44.9998 180.147 45.0848C180.465 45.1698 180.762 45.3165 181.022 45.5164C181.283 45.7163 181.501 45.9656 181.666 46.25C183.997 50.2844 187.666 52.5 192 52.5C196.334 52.5 200.003 50.2812 202.338 46.25C202.494 45.9512 202.709 45.6872 202.97 45.4737C203.231 45.2602 203.532 45.1018 203.856 45.0078C204.18 44.9139 204.519 44.8864 204.854 44.9271C205.189 44.9677 205.512 45.0757 205.804 45.2444C206.096 45.4131 206.351 45.6392 206.553 45.9089C206.755 46.1787 206.901 46.4865 206.981 46.814C207.061 47.1415 207.074 47.4819 207.02 47.8146C206.965 48.1473 206.843 48.4655 206.663 48.75Z" fill="#4F46E5"/>
<path d="M84.5146 122V107.1H89.3746C90.9479 107.1 92.3146 107.42 93.4746 108.06C94.6479 108.687 95.5546 109.56 96.1946 110.68C96.8346 111.787 97.1546 113.073 97.1546 114.54C97.1546 115.993 96.8346 117.287 96.1946 118.42C95.5546 119.54 94.6479 120.42 93.4746 121.06C92.3146 121.687 90.9479 122 89.3746 122H84.5146ZM87.2346 119.6H89.4346C90.4479 119.6 91.3213 119.393 92.0546 118.98C92.8013 118.553 93.3813 117.967 93.7946 117.22C94.2079 116.46 94.4146 115.567 94.4146 114.54C94.4146 113.5 94.2079 112.607 93.7946 111.86C93.3813 111.113 92.8013 110.533 92.0546 110.12C91.3213 109.707 90.4479 109.5 89.4346 109.5H87.2346V119.6ZM104.219 122.24C103.153 122.24 102.179 121.993 101.299 121.5C100.433 121.007 99.7393 120.333 99.2193 119.48C98.7126 118.627 98.4593 117.653 98.4593 116.56C98.4593 115.467 98.7126 114.493 99.2193 113.64C99.7393 112.787 100.433 112.113 101.299 111.62C102.166 111.127 103.139 110.88 104.219 110.88C105.286 110.88 106.253 111.127 107.119 111.62C107.986 112.113 108.673 112.787 109.179 113.64C109.699 114.48 109.959 115.453 109.959 116.56C109.959 117.653 109.699 118.627 109.179 119.48C108.659 120.333 107.966 121.007 107.099 121.5C106.233 121.993 105.273 122.24 104.219 122.24ZM104.219 119.84C104.806 119.84 105.319 119.7 105.759 119.42C106.213 119.14 106.566 118.753 106.819 118.26C107.086 117.753 107.219 117.187 107.219 116.56C107.219 115.92 107.086 115.36 106.819 114.88C106.566 114.387 106.213 114 105.759 113.72C105.319 113.427 104.806 113.28 104.219 113.28C103.619 113.28 103.093 113.427 102.639 113.72C102.186 114 101.826 114.387 101.559 114.88C101.306 115.36 101.179 115.92 101.179 116.56C101.179 117.187 101.306 117.753 101.559 118.26C101.826 118.753 102.186 119.14 102.639 119.42C103.093 119.7 103.619 119.84 104.219 119.84ZM111.746 122V111.12H114.206V113.26L114.006 112.88C114.26 112.227 114.673 111.733 115.246 111.4C115.833 111.053 116.513 110.88 117.286 110.88C118.086 110.88 118.793 111.053 119.406 111.4C120.033 111.747 120.52 112.233 120.866 112.86C121.213 113.473 121.386 114.187 121.386 115V122H118.766V115.62C118.766 115.14 118.673 114.727 118.486 114.38C118.3 114.033 118.04 113.767 117.706 113.58C117.386 113.38 117.006 113.28 116.566 113.28C116.14 113.28 115.76 113.38 115.426 113.58C115.093 113.767 114.833 114.033 114.646 114.38C114.46 114.727 114.366 115.14 114.366 115.62V122H111.746ZM124.242 112.82V111.52C124.682 111.413 125.035 111.22 125.302 110.94C125.582 110.647 125.755 110.3 125.822 109.9H124.642V107.1H127.282V108.82C127.282 109.9 127.022 110.787 126.502 111.48C125.995 112.16 125.242 112.607 124.242 112.82ZM135.31 122.12C134.083 122.12 133.13 121.787 132.45 121.12C131.783 120.44 131.45 119.487 131.45 118.26V113.46H129.57V111.12H129.77C130.303 111.12 130.717 110.98 131.01 110.7C131.303 110.42 131.45 110.013 131.45 109.48V108.64H134.07V111.12H136.57V113.46H134.07V118.12C134.07 118.48 134.13 118.787 134.25 119.04C134.383 119.293 134.583 119.487 134.85 119.62C135.13 119.753 135.483 119.82 135.91 119.82C136.003 119.82 136.11 119.813 136.23 119.8C136.363 119.787 136.49 119.773 136.61 119.76V122C136.423 122.027 136.21 122.053 135.97 122.08C135.73 122.107 135.51 122.12 135.31 122.12ZM144.766 122L140.766 107.1H143.686L146.826 119.8H146.066L149.346 107.1H152.166L155.426 119.8H154.666L157.806 107.1H160.726L156.726 122H153.606L150.306 109.64H151.186L147.886 122H144.766ZM166.633 122.24C165.566 122.24 164.593 121.993 163.713 121.5C162.846 121.007 162.153 120.333 161.633 119.48C161.126 118.627 160.873 117.653 160.873 116.56C160.873 115.467 161.126 114.493 161.633 113.64C162.153 112.787 162.846 112.113 163.713 111.62C164.579 111.127 165.553 110.88 166.633 110.88C167.699 110.88 168.666 111.127 169.533 111.62C170.399 112.113 171.086 112.787 171.593 113.64C172.113 114.48 172.373 115.453 172.373 116.56C172.373 117.653 172.113 118.627 171.593 119.48C171.073 120.333 170.379 121.007 169.513 121.5C168.646 121.993 167.686 122.24 166.633 122.24ZM166.633 119.84C167.219 119.84 167.733 119.7 168.173 119.42C168.626 119.14 168.979 118.753 169.233 118.26C169.499 117.753 169.633 117.187 169.633 116.56C169.633 115.92 169.499 115.36 169.233 114.88C168.979 114.387 168.626 114 168.173 113.72C167.733 113.427 167.219 113.28 166.633 113.28C166.033 113.28 165.506 113.427 165.053 113.72C164.599 114 164.239 114.387 163.973 114.88C163.719 115.36 163.593 115.92 163.593 116.56C163.593 117.187 163.719 117.753 163.973 118.26C164.239 118.753 164.599 119.14 165.053 119.42C165.506 119.7 166.033 119.84 166.633 119.84ZM174.159 122V111.12H176.619V113.54L176.419 113.18C176.673 112.367 177.066 111.8 177.599 111.48C178.146 111.16 178.799 111 179.559 111H180.199V113.32H179.259C178.513 113.32 177.913 113.553 177.459 114.02C177.006 114.473 176.779 115.113 176.779 115.94V122H174.159ZM181.44 122V111.12H183.9V113.54L183.7 113.18C183.953 112.367 184.347 111.8 184.88 111.48C185.427 111.16 186.08 111 186.84 111H187.48V113.32H186.54C185.793 113.32 185.193 113.553 184.74 114.02C184.287 114.473 184.06 115.113 184.06 115.94V122H181.44ZM190.04 126.4C189.747 126.4 189.46 126.373 189.18 126.32C188.9 126.28 188.647 126.2 188.42 126.08V123.9C188.594 123.94 188.8 123.98 189.04 124.02C189.294 124.06 189.527 124.08 189.74 124.08C190.34 124.08 190.774 123.94 191.04 123.66C191.32 123.393 191.567 123.033 191.78 122.58L192.5 120.9L192.46 123.1L187.72 111.12H190.54L193.86 119.96H192.86L196.16 111.12H199L194.26 123.1C193.98 123.793 193.64 124.387 193.24 124.88C192.84 125.373 192.374 125.747 191.84 126C191.32 126.267 190.72 126.4 190.04 126.4ZM202.594 122L207.734 107.1H211.254L216.394 122H213.434L212.374 118.8H206.614L205.534 122H202.594ZM207.394 116.4H211.594L209.114 108.98H209.874L207.394 116.4ZM223.572 122.24C222.785 122.24 222.059 122.087 221.392 121.78C220.739 121.46 220.219 121.007 219.832 120.42L220.092 119.9V122H217.632V106.86H220.252V113.28L219.852 112.74C220.225 112.153 220.732 111.7 221.372 111.38C222.012 111.047 222.752 110.88 223.592 110.88C224.619 110.88 225.545 111.133 226.372 111.64C227.199 112.147 227.852 112.827 228.332 113.68C228.825 114.533 229.072 115.493 229.072 116.56C229.072 117.613 228.832 118.573 228.352 119.44C227.872 120.307 227.219 120.993 226.392 121.5C225.565 121.993 224.625 122.24 223.572 122.24ZM223.272 119.84C223.872 119.84 224.405 119.7 224.872 119.42C225.339 119.14 225.699 118.753 225.952 118.26C226.219 117.767 226.352 117.2 226.352 116.56C226.352 115.92 226.219 115.36 225.952 114.88C225.699 114.387 225.339 114 224.872 113.72C224.405 113.427 223.872 113.28 223.272 113.28C222.699 113.28 222.179 113.42 221.712 113.7C221.259 113.98 220.899 114.373 220.632 114.88C220.379 115.373 220.252 115.933 220.252 116.56C220.252 117.2 220.379 117.767 220.632 118.26C220.899 118.753 221.259 119.14 221.712 119.42C222.179 119.7 222.699 119.84 223.272 119.84ZM236.19 122.24C235.123 122.24 234.15 121.993 233.27 121.5C232.403 121.007 231.71 120.333 231.19 119.48C230.683 118.627 230.43 117.653 230.43 116.56C230.43 115.467 230.683 114.493 231.19 113.64C231.71 112.787 232.403 112.113 233.27 111.62C234.136 111.127 235.11 110.88 236.19 110.88C237.256 110.88 238.223 111.127 239.09 111.62C239.956 112.113 240.643 112.787 241.15 113.64C241.67 114.48 241.93 115.453 241.93 116.56C241.93 117.653 241.67 118.627 241.15 119.48C240.63 120.333 239.936 121.007 239.07 121.5C238.203 121.993 237.243 122.24 236.19 122.24ZM236.19 119.84C236.776 119.84 237.29 119.7 237.73 119.42C238.183 119.14 238.536 118.753 238.79 118.26C239.056 117.753 239.19 117.187 239.19 116.56C239.19 115.92 239.056 115.36 238.79 114.88C238.536 114.387 238.183 114 237.73 113.72C237.29 113.427 236.776 113.28 236.19 113.28C235.59 113.28 235.063 113.427 234.61 113.72C234.156 114 233.796 114.387 233.53 114.88C233.276 115.36 233.15 115.92 233.15 116.56C233.15 117.187 233.276 117.753 233.53 118.26C233.796 118.753 234.156 119.14 234.61 119.42C235.063 119.7 235.59 119.84 236.19 119.84ZM247.596 122.24C246.756 122.24 246.023 122.053 245.396 121.68C244.783 121.307 244.31 120.787 243.976 120.12C243.656 119.453 243.496 118.673 243.496 117.78V111.12H246.116V117.56C246.116 118.013 246.203 118.413 246.376 118.76C246.563 119.093 246.823 119.36 247.156 119.56C247.503 119.747 247.89 119.84 248.316 119.84C248.743 119.84 249.123 119.747 249.456 119.56C249.79 119.36 250.05 119.087 250.236 118.74C250.423 118.393 250.516 117.98 250.516 117.5V111.12H253.136V122H250.656V119.86L250.876 120.24C250.623 120.907 250.203 121.407 249.616 121.74C249.043 122.073 248.37 122.24 247.596 122.24ZM260.332 122.12C259.105 122.12 258.152 121.787 257.472 121.12C256.805 120.44 256.472 119.487 256.472 118.26V113.46H254.592V111.12H254.792C255.325 111.12 255.739 110.98 256.032 110.7C256.325 110.42 256.472 110.013 256.472 109.48V108.64H259.092V111.12H261.592V113.46H259.092V118.12C259.092 118.48 259.152 118.787 259.272 119.04C259.405 119.293 259.605 119.487 259.872 119.62C260.152 119.753 260.505 119.82 260.932 119.82C261.025 119.82 261.132 119.813 261.252 119.8C261.385 119.787 261.512 119.773 261.632 119.76V122C261.445 122.027 261.232 122.053 260.992 122.08C260.752 122.107 260.532 122.12 260.332 122.12ZM267.008 122V107.1H269.728V119.6H276.108V122H267.008ZM277.448 122V111.12H280.068V122H277.448ZM277.448 109.9V107.1H280.068V109.9H277.448ZM283.547 122V113.46H281.627V111.12H283.547V110.76C283.547 109.933 283.713 109.233 284.047 108.66C284.393 108.073 284.873 107.627 285.487 107.32C286.1 107.013 286.827 106.86 287.667 106.86C287.827 106.86 288 106.873 288.187 106.9C288.387 106.913 288.553 106.933 288.687 106.96V109.22C288.553 109.193 288.427 109.18 288.307 109.18C288.2 109.167 288.1 109.16 288.007 109.16C287.42 109.16 286.967 109.293 286.647 109.56C286.327 109.813 286.167 110.213 286.167 110.76V111.12H288.587V113.46H286.167V122H283.547ZM295.059 122.24C293.939 122.24 292.959 121.987 292.119 121.48C291.279 120.973 290.626 120.287 290.159 119.42C289.693 118.553 289.459 117.593 289.459 116.54C289.459 115.447 289.693 114.48 290.159 113.64C290.639 112.787 291.286 112.113 292.099 111.62C292.926 111.127 293.846 110.88 294.859 110.88C295.713 110.88 296.459 111.02 297.099 111.3C297.753 111.58 298.306 111.967 298.759 112.46C299.213 112.953 299.559 113.52 299.799 114.16C300.039 114.787 300.159 115.467 300.159 116.2C300.159 116.387 300.146 116.58 300.119 116.78C300.106 116.98 300.073 117.153 300.019 117.3H291.619V115.3H298.539L297.299 116.24C297.419 115.627 297.386 115.08 297.199 114.6C297.026 114.12 296.733 113.74 296.319 113.46C295.919 113.18 295.433 113.04 294.859 113.04C294.313 113.04 293.826 113.18 293.399 113.46C292.973 113.727 292.646 114.127 292.419 114.66C292.206 115.18 292.126 115.813 292.179 116.56C292.126 117.227 292.213 117.82 292.439 118.34C292.679 118.847 293.026 119.24 293.479 119.52C293.946 119.8 294.479 119.94 295.079 119.94C295.679 119.94 296.186 119.813 296.599 119.56C297.026 119.307 297.359 118.967 297.599 118.54L299.719 119.58C299.506 120.1 299.173 120.56 298.719 120.96C298.266 121.36 297.726 121.673 297.099 121.9C296.486 122.127 295.806 122.24 295.059 122.24Z" fill="#1E293B"/>
<path d="M23.6502 156V144.08H27.7462C28.5249 144.08 29.2075 144.235 29.7942 144.544C30.3809 144.843 30.8342 145.269 31.1542 145.824C31.4849 146.368 31.6502 147.003 31.6502 147.728C31.6502 148.453 31.4849 149.088 31.1542 149.632C30.8342 150.176 30.3809 150.603 29.7942 150.912C29.2182 151.211 28.5355 151.36 27.7462 151.36H24.9302V156H23.6502ZM24.9302 150.16H27.8102C28.3222 150.16 28.7702 150.064 29.1542 149.872C29.5382 149.669 29.8369 149.387 30.0502 149.024C30.2635 148.651 30.3702 148.213 30.3702 147.712C30.3702 147.211 30.2635 146.779 30.0502 146.416C29.8369 146.053 29.5382 145.776 29.1542 145.584C28.7702 145.381 28.3222 145.28 27.8102 145.28H24.9302V150.16ZM33.7554 156V143.888H34.9554V149.088L34.6834 149.024C34.8968 148.469 35.2434 148.032 35.7234 147.712C36.2141 147.392 36.7794 147.232 37.4194 147.232C38.0274 147.232 38.5714 147.371 39.0514 147.648C39.5421 147.925 39.9261 148.309 40.2034 148.8C40.4914 149.28 40.6354 149.824 40.6354 150.432V156H39.4354V150.896C39.4354 150.373 39.3394 149.931 39.1474 149.568C38.9554 149.205 38.6888 148.928 38.3474 148.736C38.0168 148.533 37.6381 148.432 37.2114 148.432C36.7848 148.432 36.4008 148.533 36.0594 148.736C35.7181 148.928 35.4461 149.211 35.2434 149.584C35.0514 149.947 34.9554 150.384 34.9554 150.896V156H33.7554ZM45.4073 156.192C44.8633 156.192 44.378 156.091 43.9513 155.888C43.5246 155.675 43.1886 155.387 42.9433 155.024C42.698 154.661 42.5753 154.245 42.5753 153.776C42.5753 153.328 42.6713 152.923 42.8633 152.56C43.0553 152.187 43.354 151.872 43.7593 151.616C44.1646 151.36 44.682 151.179 45.3113 151.072L48.6713 150.512V151.6L45.5993 152.112C44.9806 152.219 44.5326 152.416 44.2553 152.704C43.9886 152.992 43.8553 153.333 43.8553 153.728C43.8553 154.112 44.0046 154.437 44.3033 154.704C44.6126 154.971 45.0073 155.104 45.4873 155.104C46.074 155.104 46.586 154.981 47.0233 154.736C47.4606 154.48 47.802 154.139 48.0473 153.712C48.2926 153.285 48.4153 152.811 48.4153 152.288V150.112C48.4153 149.6 48.2286 149.184 47.8553 148.864C47.482 148.544 46.9966 148.384 46.3993 148.384C45.8766 148.384 45.418 148.517 45.0233 148.784C44.6286 149.04 44.3353 149.376 44.1433 149.792L43.0553 149.2C43.2153 148.837 43.466 148.507 43.8073 148.208C44.1593 147.909 44.5593 147.675 45.0073 147.504C45.4553 147.323 45.9193 147.232 46.3993 147.232C47.0286 147.232 47.5833 147.355 48.0633 147.6C48.554 147.845 48.9326 148.187 49.1993 148.624C49.4766 149.051 49.6153 149.547 49.6153 150.112V156H48.4153V154.288L48.5913 154.464C48.442 154.784 48.2073 155.077 47.8873 155.344C47.578 155.6 47.21 155.808 46.7833 155.968C46.3673 156.117 45.9086 156.192 45.4073 156.192ZM52.0836 156V147.424H53.2836V148.832L53.1236 148.624C53.3262 148.219 53.6302 147.899 54.0356 147.664C54.4516 147.429 54.9529 147.312 55.5396 147.312H56.0836V148.512H55.3316C54.7129 148.512 54.2169 148.704 53.8436 149.088C53.4702 149.472 53.2836 150.016 53.2836 150.72V156H52.0836ZM61.3938 156.192C60.5938 156.192 59.8685 156 59.2178 155.616C58.5778 155.221 58.0711 154.683 57.6978 154C57.3245 153.317 57.1378 152.544 57.1378 151.68C57.1378 150.816 57.3191 150.053 57.6818 149.392C58.0445 148.72 58.5351 148.192 59.1538 147.808C59.7831 147.424 60.4871 147.232 61.2658 147.232C61.8845 147.232 62.4338 147.349 62.9138 147.584C63.4045 147.808 63.8205 148.117 64.1618 148.512C64.5031 148.896 64.7645 149.333 64.9458 149.824C65.1271 150.304 65.2178 150.8 65.2178 151.312C65.2178 151.419 65.2125 151.541 65.2018 151.68C65.1911 151.808 65.1751 151.941 65.1538 152.08H57.9058V150.96H64.4658L63.8898 151.44C63.9858 150.853 63.9165 150.331 63.6818 149.872C63.4578 149.403 63.1325 149.035 62.7058 148.768C62.2791 148.491 61.7991 148.352 61.2658 148.352C60.7325 148.352 60.2365 148.491 59.7778 148.768C59.3298 149.045 58.9778 149.435 58.7218 149.936C58.4658 150.427 58.3645 151.013 58.4178 151.696C58.3645 152.379 58.4711 152.976 58.7378 153.488C59.0151 153.989 59.3885 154.379 59.8578 154.656C60.3378 154.933 60.8498 155.072 61.3938 155.072C62.0231 155.072 62.5511 154.923 62.9778 154.624C63.4045 154.325 63.7511 153.952 64.0178 153.504L65.0418 154.048C64.8711 154.432 64.6098 154.789 64.2578 155.12C63.9058 155.44 63.4845 155.701 62.9938 155.904C62.5138 156.096 61.9805 156.192 61.3938 156.192ZM70.6136 156.096C69.8456 156.096 69.2536 155.872 68.8376 155.424C68.4216 154.976 68.2136 154.336 68.2136 153.504V148.624H66.6296V147.424H67.0296C67.3922 147.424 67.6802 147.307 67.8936 147.072C68.1069 146.827 68.2136 146.523 68.2136 146.16V145.44H69.4136V147.424H71.3016V148.624H69.4136V153.504C69.4136 153.792 69.4562 154.048 69.5416 154.272C69.6269 154.485 69.7709 154.656 69.9736 154.784C70.1869 154.912 70.4696 154.976 70.8216 154.976C70.9069 154.976 71.0082 154.971 71.1256 154.96C71.2429 154.949 71.3442 154.939 71.4296 154.928V156C71.3016 156.032 71.1576 156.053 70.9976 156.064C70.8376 156.085 70.7096 156.096 70.6136 156.096ZM73.5367 156V147.424H74.7367V148.832L74.5767 148.624C74.7794 148.219 75.0834 147.899 75.4887 147.664C75.9047 147.429 76.406 147.312 76.9927 147.312H77.5367V148.512H76.7847C76.166 148.512 75.67 148.704 75.2967 149.088C74.9234 149.472 74.7367 150.016 74.7367 150.72V156H73.5367ZM81.4229 156.192C80.8789 156.192 80.3936 156.091 79.9669 155.888C79.5403 155.675 79.2043 155.387 78.9589 155.024C78.7136 154.661 78.5909 154.245 78.5909 153.776C78.5909 153.328 78.6869 152.923 78.8789 152.56C79.0709 152.187 79.3696 151.872 79.7749 151.616C80.1803 151.36 80.6976 151.179 81.3269 151.072L84.6869 150.512V151.6L81.6149 152.112C80.9963 152.219 80.5483 152.416 80.2709 152.704C80.0043 152.992 79.8709 153.333 79.8709 153.728C79.8709 154.112 80.0203 154.437 80.3189 154.704C80.6283 154.971 81.0229 155.104 81.5029 155.104C82.0896 155.104 82.6016 154.981 83.0389 154.736C83.4763 154.48 83.8176 154.139 84.0629 153.712C84.3083 153.285 84.4309 152.811 84.4309 152.288V150.112C84.4309 149.6 84.2443 149.184 83.8709 148.864C83.4976 148.544 83.0123 148.384 82.4149 148.384C81.8923 148.384 81.4336 148.517 81.0389 148.784C80.6443 149.04 80.3509 149.376 80.1589 149.792L79.0709 149.2C79.2309 148.837 79.4816 148.507 79.8229 148.208C80.1749 147.909 80.5749 147.675 81.0229 147.504C81.4709 147.323 81.9349 147.232 82.4149 147.232C83.0443 147.232 83.5989 147.355 84.0789 147.6C84.5696 147.845 84.9483 148.187 85.2149 148.624C85.4923 149.051 85.6309 149.547 85.6309 150.112V156H84.4309V154.288L84.6069 154.464C84.4576 154.784 84.2229 155.077 83.9029 155.344C83.5936 155.6 83.2256 155.808 82.7989 155.968C82.3829 156.117 81.9243 156.192 81.4229 156.192ZM94.6899 156.192C93.8899 156.192 93.1699 156 92.5299 155.616C91.8899 155.221 91.3833 154.688 91.0099 154.016C90.6473 153.333 90.4659 152.565 90.4659 151.712C90.4659 150.848 90.6473 150.08 91.0099 149.408C91.3833 148.736 91.8846 148.208 92.5139 147.824C93.1539 147.429 93.8793 147.232 94.6899 147.232C95.4259 147.232 96.0819 147.392 96.6579 147.712C97.2339 148.032 97.6873 148.464 98.0179 149.008L97.8259 149.344V143.888H99.0259V156H97.8259V154.08L98.0179 154.256C97.7193 154.875 97.2713 155.355 96.6739 155.696C96.0873 156.027 95.4259 156.192 94.6899 156.192ZM94.7539 154.992C95.3299 154.992 95.8473 154.848 96.3059 154.56C96.7753 154.272 97.1433 153.883 97.4099 153.392C97.6873 152.891 97.8259 152.331 97.8259 151.712C97.8259 151.093 97.6873 150.539 97.4099 150.048C97.1433 149.547 96.7753 149.152 96.3059 148.864C95.8473 148.576 95.3299 148.432 94.7539 148.432C94.1886 148.432 93.6766 148.576 93.2179 148.864C92.7593 149.152 92.3966 149.541 92.1299 150.032C91.8739 150.523 91.7459 151.083 91.7459 151.712C91.7459 152.331 91.8739 152.891 92.1299 153.392C92.3966 153.883 92.7539 154.272 93.2019 154.56C93.6606 154.848 94.1779 154.992 94.7539 154.992ZM101.49 156V147.424H102.69V156H101.49ZM101.49 145.84V144.08H102.69V145.84H101.49ZM107.626 156.192C107.082 156.192 106.597 156.091 106.17 155.888C105.743 155.675 105.407 155.387 105.162 155.024C104.917 154.661 104.794 154.245 104.794 153.776C104.794 153.328 104.89 152.923 105.082 152.56C105.274 152.187 105.573 151.872 105.978 151.616C106.383 151.36 106.901 151.179 107.53 151.072L110.89 150.512V151.6L107.818 152.112C107.199 152.219 106.751 152.416 106.474 152.704C106.207 152.992 106.074 153.333 106.074 153.728C106.074 154.112 106.223 154.437 106.522 154.704C106.831 154.971 107.226 155.104 107.706 155.104C108.293 155.104 108.805 154.981 109.242 154.736C109.679 154.48 110.021 154.139 110.266 153.712C110.511 153.285 110.634 152.811 110.634 152.288V150.112C110.634 149.6 110.447 149.184 110.074 148.864C109.701 148.544 109.215 148.384 108.618 148.384C108.095 148.384 107.637 148.517 107.242 148.784C106.847 149.04 106.554 149.376 106.362 149.792L105.274 149.2C105.434 148.837 105.685 148.507 106.026 148.208C106.378 147.909 106.778 147.675 107.226 147.504C107.674 147.323 108.138 147.232 108.618 147.232C109.247 147.232 109.802 147.355 110.282 147.6C110.773 147.845 111.151 148.187 111.418 148.624C111.695 149.051 111.834 149.547 111.834 150.112V156H110.634V154.288L110.81 154.464C110.661 154.784 110.426 155.077 110.106 155.344C109.797 155.6 109.429 155.808 109.002 155.968C108.586 156.117 108.127 156.192 107.626 156.192ZM114.302 156V147.424H115.502V149.056L115.31 148.816C115.545 148.315 115.892 147.925 116.35 147.648C116.82 147.371 117.332 147.232 117.886 147.232C118.548 147.232 119.145 147.419 119.678 147.792C120.212 148.165 120.59 148.651 120.814 149.248L120.478 149.264C120.692 148.603 121.06 148.101 121.582 147.76C122.116 147.408 122.702 147.232 123.342 147.232C123.918 147.232 124.446 147.371 124.926 147.648C125.417 147.925 125.806 148.309 126.094 148.8C126.393 149.28 126.542 149.824 126.542 150.432V156H125.342V150.896C125.342 150.373 125.246 149.931 125.054 149.568C124.873 149.205 124.622 148.928 124.302 148.736C123.982 148.533 123.614 148.432 123.198 148.432C122.793 148.432 122.425 148.533 122.094 148.736C121.764 148.928 121.502 149.211 121.31 149.584C121.118 149.947 121.022 150.384 121.022 150.896V156H119.822V150.896C119.822 150.373 119.726 149.931 119.534 149.568C119.353 149.205 119.102 148.928 118.782 148.736C118.462 148.533 118.094 148.432 117.678 148.432C117.262 148.432 116.889 148.533 116.558 148.736C116.238 148.928 115.982 149.211 115.79 149.584C115.598 149.947 115.502 150.384 115.502 150.896V156H114.302ZM134.528 156.192C133.707 156.192 132.987 155.984 132.368 155.568C131.75 155.152 131.302 154.587 131.024 153.872L132.032 153.392C132.278 153.915 132.619 154.331 133.056 154.64C133.504 154.949 133.995 155.104 134.528 155.104C135.04 155.104 135.472 154.981 135.824 154.736C136.176 154.48 136.352 154.149 136.352 153.744C136.352 153.445 136.267 153.211 136.096 153.04C135.926 152.859 135.728 152.72 135.504 152.624C135.28 152.528 135.083 152.459 134.912 152.416L133.68 152.064C132.891 151.84 132.32 151.525 131.968 151.12C131.616 150.715 131.44 150.245 131.44 149.712C131.44 149.211 131.568 148.773 131.824 148.4C132.08 148.027 132.427 147.739 132.864 147.536C133.302 147.333 133.787 147.232 134.32 147.232C135.046 147.232 135.702 147.424 136.288 147.808C136.886 148.181 137.307 148.704 137.552 149.376L136.528 149.856C136.315 149.376 136.006 149.003 135.6 148.736C135.206 148.459 134.763 148.32 134.272 148.32C133.792 148.32 133.408 148.443 133.12 148.688C132.832 148.933 132.688 149.243 132.688 149.616C132.688 149.904 132.763 150.133 132.912 150.304C133.062 150.475 133.232 150.603 133.424 150.688C133.627 150.773 133.803 150.837 133.952 150.88L135.376 151.296C136.07 151.499 136.608 151.813 136.992 152.24C137.387 152.667 137.584 153.168 137.584 153.744C137.584 154.213 137.451 154.635 137.184 155.008C136.928 155.381 136.571 155.675 136.112 155.888C135.654 156.091 135.126 156.192 134.528 156.192ZM139.693 156V147.424H140.893V156H139.693ZM139.693 145.84V144.08H140.893V145.84H139.693ZM146.629 156.096C145.861 156.096 145.269 155.872 144.853 155.424C144.437 154.976 144.229 154.336 144.229 153.504V148.624H142.645V147.424H143.045C143.408 147.424 143.696 147.307 143.909 147.072C144.123 146.827 144.229 146.523 144.229 146.16V145.44H145.429V147.424H147.317V148.624H145.429V153.504C145.429 153.792 145.472 154.048 145.557 154.272C145.643 154.485 145.787 154.656 145.989 154.784C146.203 154.912 146.485 154.976 146.837 154.976C146.923 154.976 147.024 154.971 147.141 154.96C147.259 154.949 147.36 154.939 147.445 154.928V156C147.317 156.032 147.173 156.053 147.013 156.064C146.853 156.085 146.725 156.096 146.629 156.096ZM154.751 156.192C154.207 156.192 153.722 156.091 153.295 155.888C152.868 155.675 152.532 155.387 152.287 155.024C152.042 154.661 151.919 154.245 151.919 153.776C151.919 153.328 152.015 152.923 152.207 152.56C152.399 152.187 152.698 151.872 153.103 151.616C153.508 151.36 154.026 151.179 154.655 151.072L158.015 150.512V151.6L154.943 152.112C154.324 152.219 153.876 152.416 153.599 152.704C153.332 152.992 153.199 153.333 153.199 153.728C153.199 154.112 153.348 154.437 153.647 154.704C153.956 154.971 154.351 155.104 154.831 155.104C155.418 155.104 155.93 154.981 156.367 154.736C156.804 154.48 157.146 154.139 157.391 153.712C157.636 153.285 157.759 152.811 157.759 152.288V150.112C157.759 149.6 157.572 149.184 157.199 148.864C156.826 148.544 156.34 148.384 155.743 148.384C155.22 148.384 154.762 148.517 154.367 148.784C153.972 149.04 153.679 149.376 153.487 149.792L152.399 149.2C152.559 148.837 152.81 148.507 153.151 148.208C153.503 147.909 153.903 147.675 154.351 147.504C154.799 147.323 155.263 147.232 155.743 147.232C156.372 147.232 156.927 147.355 157.407 147.6C157.898 147.845 158.276 148.187 158.543 148.624C158.82 149.051 158.959 149.547 158.959 150.112V156H157.759V154.288L157.935 154.464C157.786 154.784 157.551 155.077 157.231 155.344C156.922 155.6 156.554 155.808 156.127 155.968C155.711 156.117 155.252 156.192 154.751 156.192ZM161.427 156V147.424H162.627V149.056L162.435 148.816C162.67 148.315 163.017 147.925 163.475 147.648C163.945 147.371 164.457 147.232 165.011 147.232C165.673 147.232 166.27 147.419 166.803 147.792C167.337 148.165 167.715 148.651 167.939 149.248L167.603 149.264C167.817 148.603 168.185 148.101 168.707 147.76C169.241 147.408 169.827 147.232 170.467 147.232C171.043 147.232 171.571 147.371 172.051 147.648C172.542 147.925 172.931 148.309 173.219 148.8C173.518 149.28 173.667 149.824 173.667 150.432V156H172.467V150.896C172.467 150.373 172.371 149.931 172.179 149.568C171.998 149.205 171.747 148.928 171.427 148.736C171.107 148.533 170.739 148.432 170.323 148.432C169.918 148.432 169.55 148.533 169.219 148.736C168.889 148.928 168.627 149.211 168.435 149.584C168.243 149.947 168.147 150.384 168.147 150.896V156H166.947V150.896C166.947 150.373 166.851 149.931 166.659 149.568C166.478 149.205 166.227 148.928 165.907 148.736C165.587 148.533 165.219 148.432 164.803 148.432C164.387 148.432 164.014 148.533 163.683 148.736C163.363 148.928 163.107 149.211 162.915 149.584C162.723 149.947 162.627 150.384 162.627 150.896V156H161.427ZM179.863 156.192C179.063 156.192 178.337 156 177.687 155.616C177.047 155.221 176.54 154.683 176.167 154C175.793 153.317 175.607 152.544 175.607 151.68C175.607 150.816 175.788 150.053 176.151 149.392C176.513 148.72 177.004 148.192 177.623 147.808C178.252 147.424 178.956 147.232 179.735 147.232C180.353 147.232 180.903 147.349 181.383 147.584C181.873 147.808 182.289 148.117 182.631 148.512C182.972 148.896 183.233 149.333 183.415 149.824C183.596 150.304 183.687 150.8 183.687 151.312C183.687 151.419 183.681 151.541 183.671 151.68C183.66 151.808 183.644 151.941 183.623 152.08H176.375V150.96H182.935L182.359 151.44C182.455 150.853 182.385 150.331 182.151 149.872C181.927 149.403 181.601 149.035 181.175 148.768C180.748 148.491 180.268 148.352 179.735 148.352C179.201 148.352 178.705 148.491 178.247 148.768C177.799 149.045 177.447 149.435 177.191 149.936C176.935 150.427 176.833 151.013 176.887 151.696C176.833 152.379 176.94 152.976 177.207 153.488C177.484 153.989 177.857 154.379 178.327 154.656C178.807 154.933 179.319 155.072 179.863 155.072C180.492 155.072 181.02 154.923 181.447 154.624C181.873 154.325 182.22 153.952 182.487 153.504L183.511 154.048C183.34 154.432 183.079 154.789 182.727 155.12C182.375 155.44 181.953 155.701 181.463 155.904C180.983 156.096 180.449 156.192 179.863 156.192ZM189.082 156.096C188.314 156.096 187.722 155.872 187.306 155.424C186.89 154.976 186.682 154.336 186.682 153.504V148.624H185.098V147.424H185.498C185.861 147.424 186.149 147.307 186.362 147.072C186.576 146.827 186.682 146.523 186.682 146.16V145.44H187.882V147.424H189.77V148.624H187.882V153.504C187.882 153.792 187.925 154.048 188.01 154.272C188.096 154.485 188.24 154.656 188.442 154.784C188.656 154.912 188.938 154.976 189.29 154.976C189.376 154.976 189.477 154.971 189.594 154.96C189.712 154.949 189.813 154.939 189.898 154.928V156C189.77 156.032 189.626 156.053 189.466 156.064C189.306 156.085 189.178 156.096 189.082 156.096ZM194.724 156V147.424H195.924V149.088L195.652 149.024C195.866 148.469 196.212 148.032 196.692 147.712C197.183 147.392 197.748 147.232 198.388 147.232C198.996 147.232 199.54 147.371 200.02 147.648C200.511 147.925 200.895 148.309 201.172 148.8C201.46 149.28 201.604 149.824 201.604 150.432V156H200.404V150.896C200.404 150.373 200.308 149.931 200.116 149.568C199.935 149.205 199.674 148.928 199.332 148.736C199.002 148.533 198.618 148.432 198.18 148.432C197.743 148.432 197.354 148.533 197.012 148.736C196.671 148.928 196.404 149.211 196.212 149.584C196.02 149.947 195.924 150.384 195.924 150.896V156H194.724ZM203.896 156V147.424H205.096V156H203.896ZM203.896 145.84V144.08H205.096V145.84H203.896ZM210.528 156.192C209.707 156.192 208.987 155.984 208.368 155.568C207.75 155.152 207.302 154.587 207.024 153.872L208.032 153.392C208.278 153.915 208.619 154.331 209.056 154.64C209.504 154.949 209.995 155.104 210.528 155.104C211.04 155.104 211.472 154.981 211.824 154.736C212.176 154.48 212.352 154.149 212.352 153.744C212.352 153.445 212.267 153.211 212.096 153.04C211.926 152.859 211.728 152.72 211.504 152.624C211.28 152.528 211.083 152.459 210.912 152.416L209.68 152.064C208.891 151.84 208.32 151.525 207.968 151.12C207.616 150.715 207.44 150.245 207.44 149.712C207.44 149.211 207.568 148.773 207.824 148.4C208.08 148.027 208.427 147.739 208.864 147.536C209.302 147.333 209.787 147.232 210.32 147.232C211.046 147.232 211.702 147.424 212.288 147.808C212.886 148.181 213.307 148.704 213.552 149.376L212.528 149.856C212.315 149.376 212.006 149.003 211.6 148.736C211.206 148.459 210.763 148.32 210.272 148.32C209.792 148.32 209.408 148.443 209.12 148.688C208.832 148.933 208.688 149.243 208.688 149.616C208.688 149.904 208.763 150.133 208.912 150.304C209.062 150.475 209.232 150.603 209.424 150.688C209.627 150.773 209.803 150.837 209.952 150.88L211.376 151.296C212.07 151.499 212.608 151.813 212.992 152.24C213.387 152.667 213.584 153.168 213.584 153.744C213.584 154.213 213.451 154.635 213.184 155.008C212.928 155.381 212.571 155.675 212.112 155.888C211.654 156.091 211.126 156.192 210.528 156.192ZM215.693 156V143.888H216.893V156H215.693ZM225.044 156.192C224.223 156.192 223.503 155.984 222.884 155.568C222.265 155.152 221.817 154.587 221.54 153.872L222.548 153.392C222.793 153.915 223.135 154.331 223.572 154.64C224.02 154.949 224.511 155.104 225.044 155.104C225.556 155.104 225.988 154.981 226.34 154.736C226.692 154.48 226.868 154.149 226.868 153.744C226.868 153.445 226.783 153.211 226.612 153.04C226.441 152.859 226.244 152.72 226.02 152.624C225.796 152.528 225.599 152.459 225.428 152.416L224.196 152.064C223.407 151.84 222.836 151.525 222.484 151.12C222.132 150.715 221.956 150.245 221.956 149.712C221.956 149.211 222.084 148.773 222.34 148.4C222.596 148.027 222.943 147.739 223.38 147.536C223.817 147.333 224.303 147.232 224.836 147.232C225.561 147.232 226.217 147.424 226.804 147.808C227.401 148.181 227.823 148.704 228.068 149.376L227.044 149.856C226.831 149.376 226.521 149.003 226.116 148.736C225.721 148.459 225.279 148.32 224.788 148.32C224.308 148.32 223.924 148.443 223.636 148.688C223.348 148.933 223.204 149.243 223.204 149.616C223.204 149.904 223.279 150.133 223.428 150.304C223.577 150.475 223.748 150.603 223.94 150.688C224.143 150.773 224.319 150.837 224.468 150.88L225.892 151.296C226.585 151.499 227.124 151.813 227.508 152.24C227.903 152.667 228.1 153.168 228.1 153.744C228.1 154.213 227.967 154.635 227.7 155.008C227.444 155.381 227.087 155.675 226.628 155.888C226.169 156.091 225.641 156.192 225.044 156.192ZM233.249 156.192C232.651 156.192 232.107 156.053 231.617 155.776C231.126 155.488 230.737 155.093 230.449 154.592C230.171 154.08 230.033 153.493 230.033 152.832V147.424H231.233V152.688C231.233 153.147 231.323 153.552 231.505 153.904C231.697 154.245 231.958 154.512 232.289 154.704C232.63 154.896 233.019 154.992 233.457 154.992C233.894 154.992 234.283 154.896 234.625 154.704C234.966 154.501 235.233 154.219 235.425 153.856C235.617 153.483 235.713 153.04 235.713 152.528V147.424H236.913V156H235.713V154.336L235.985 154.4C235.782 154.955 235.435 155.392 234.945 155.712C234.454 156.032 233.889 156.192 233.249 156.192ZM242.356 156.192C241.535 156.192 240.815 155.984 240.196 155.568C239.578 155.152 239.13 154.587 238.852 153.872L239.86 153.392C240.106 153.915 240.447 154.331 240.884 154.64C241.332 154.949 241.823 155.104 242.356 155.104C242.868 155.104 243.3 154.981 243.652 154.736C244.004 154.48 244.18 154.149 244.18 153.744C244.18 153.445 244.095 153.211 243.924 153.04C243.754 152.859 243.556 152.72 243.332 152.624C243.108 152.528 242.911 152.459 242.74 152.416L241.508 152.064C240.719 151.84 240.148 151.525 239.796 151.12C239.444 150.715 239.268 150.245 239.268 149.712C239.268 149.211 239.396 148.773 239.652 148.4C239.908 148.027 240.255 147.739 240.692 147.536C241.13 147.333 241.615 147.232 242.148 147.232C242.874 147.232 243.53 147.424 244.116 147.808C244.714 148.181 245.135 148.704 245.38 149.376L244.356 149.856C244.143 149.376 243.834 149.003 243.428 148.736C243.034 148.459 242.591 148.32 242.1 148.32C241.62 148.32 241.236 148.443 240.948 148.688C240.66 148.933 240.516 149.243 240.516 149.616C240.516 149.904 240.591 150.133 240.74 150.304C240.89 150.475 241.06 150.603 241.252 150.688C241.455 150.773 241.631 150.837 241.78 150.88L243.204 151.296C243.898 151.499 244.436 151.813 244.82 152.24C245.215 152.667 245.412 153.168 245.412 153.744C245.412 154.213 245.279 154.635 245.012 155.008C244.756 155.381 244.399 155.675 243.94 155.888C243.482 156.091 242.954 156.192 242.356 156.192ZM251.441 156.192C250.598 156.192 249.857 155.995 249.217 155.6C248.577 155.205 248.076 154.672 247.713 154C247.35 153.317 247.169 152.549 247.169 151.696C247.169 150.843 247.35 150.08 247.713 149.408C248.076 148.736 248.577 148.208 249.217 147.824C249.857 147.429 250.598 147.232 251.441 147.232C251.974 147.232 252.476 147.328 252.945 147.52C253.414 147.712 253.83 147.973 254.193 148.304C254.556 148.624 254.828 148.997 255.009 149.424L253.921 149.984C253.708 149.525 253.382 149.152 252.945 148.864C252.508 148.576 252.006 148.432 251.441 148.432C250.876 148.432 250.364 148.576 249.905 148.864C249.457 149.141 249.1 149.531 248.833 150.032C248.577 150.523 248.449 151.083 248.449 151.712C248.449 152.331 248.577 152.891 248.833 153.392C249.1 153.883 249.457 154.272 249.905 154.56C250.364 154.848 250.876 154.992 251.441 154.992C252.006 154.992 252.502 154.848 252.929 154.56C253.366 154.272 253.697 153.888 253.921 153.408L255.009 154C254.828 154.416 254.556 154.789 254.193 155.12C253.83 155.451 253.414 155.712 252.945 155.904C252.476 156.096 251.974 156.192 251.441 156.192ZM257.115 156V147.424H258.315V156H257.115ZM257.115 145.84V144.08H258.315V145.84H257.115ZM260.771 159.2V147.424H261.971V149.344L261.779 149.008C262.12 148.464 262.574 148.032 263.139 147.712C263.715 147.392 264.371 147.232 265.107 147.232C265.918 147.232 266.638 147.429 267.267 147.824C267.907 148.208 268.408 148.736 268.771 149.408C269.144 150.08 269.331 150.848 269.331 151.712C269.331 152.565 269.144 153.333 268.771 154.016C268.408 154.688 267.907 155.221 267.267 155.616C266.638 156 265.918 156.192 265.107 156.192C264.371 156.192 263.704 156.027 263.107 155.696C262.52 155.355 262.078 154.875 261.779 154.256L261.971 154.08V159.2H260.771ZM265.043 154.992C265.619 154.992 266.131 154.848 266.579 154.56C267.038 154.272 267.395 153.883 267.651 153.392C267.918 152.891 268.051 152.331 268.051 151.712C268.051 151.083 267.918 150.523 267.651 150.032C267.395 149.541 267.038 149.152 266.579 148.864C266.131 148.576 265.619 148.432 265.043 148.432C264.467 148.432 263.944 148.576 263.475 148.864C263.016 149.152 262.648 149.547 262.371 150.048C262.104 150.539 261.971 151.093 261.971 151.712C261.971 152.331 262.104 152.891 262.371 153.392C262.648 153.883 263.016 154.272 263.475 154.56C263.944 154.848 264.467 154.992 265.043 154.992ZM271.443 156V147.424H272.643V156H271.443ZM271.443 145.84V144.08H272.643V145.84H271.443ZM278.379 156.096C277.611 156.096 277.019 155.872 276.603 155.424C276.187 154.976 275.979 154.336 275.979 153.504V148.624H274.395V147.424H274.795C275.158 147.424 275.446 147.307 275.659 147.072C275.873 146.827 275.979 146.523 275.979 146.16V145.44H277.179V147.424H279.067V148.624H277.179V153.504C277.179 153.792 277.222 154.048 277.307 154.272C277.393 154.485 277.537 154.656 277.739 154.784C277.953 154.912 278.235 154.976 278.587 154.976C278.673 154.976 278.774 154.971 278.891 154.96C279.009 154.949 279.11 154.939 279.195 154.928V156C279.067 156.032 278.923 156.053 278.763 156.064C278.603 156.085 278.475 156.096 278.379 156.096ZM286.501 156.192C285.957 156.192 285.472 156.091 285.045 155.888C284.618 155.675 284.282 155.387 284.037 155.024C283.792 154.661 283.669 154.245 283.669 153.776C283.669 153.328 283.765 152.923 283.957 152.56C284.149 152.187 284.448 151.872 284.853 151.616C285.258 151.36 285.776 151.179 286.405 151.072L289.765 150.512V151.6L286.693 152.112C286.074 152.219 285.626 152.416 285.349 152.704C285.082 152.992 284.949 153.333 284.949 153.728C284.949 154.112 285.098 154.437 285.397 154.704C285.706 154.971 286.101 155.104 286.581 155.104C287.168 155.104 287.68 154.981 288.117 154.736C288.554 154.48 288.896 154.139 289.141 153.712C289.386 153.285 289.509 152.811 289.509 152.288V150.112C289.509 149.6 289.322 149.184 288.949 148.864C288.576 148.544 288.09 148.384 287.493 148.384C286.97 148.384 286.512 148.517 286.117 148.784C285.722 149.04 285.429 149.376 285.237 149.792L284.149 149.2C284.309 148.837 284.56 148.507 284.901 148.208C285.253 147.909 285.653 147.675 286.101 147.504C286.549 147.323 287.013 147.232 287.493 147.232C288.122 147.232 288.677 147.355 289.157 147.6C289.648 147.845 290.026 148.187 290.293 148.624C290.57 149.051 290.709 149.547 290.709 150.112V156H289.509V154.288L289.685 154.464C289.536 154.784 289.301 155.077 288.981 155.344C288.672 155.6 288.304 155.808 287.877 155.968C287.461 156.117 287.002 156.192 286.501 156.192ZM297.049 156.192C296.249 156.192 295.529 156 294.889 155.616C294.249 155.221 293.743 154.688 293.369 154.016C293.007 153.333 292.825 152.565 292.825 151.712C292.825 150.848 293.007 150.08 293.369 149.408C293.743 148.736 294.244 148.208 294.873 147.824C295.513 147.429 296.239 147.232 297.049 147.232C297.785 147.232 298.441 147.392 299.017 147.712C299.593 148.032 300.047 148.464 300.377 149.008L300.185 149.344V143.888H301.385V156H300.185V154.08L300.377 154.256C300.079 154.875 299.631 155.355 299.033 155.696C298.447 156.027 297.785 156.192 297.049 156.192ZM297.113 154.992C297.689 154.992 298.207 154.848 298.665 154.56C299.135 154.272 299.503 153.883 299.769 153.392C300.047 152.891 300.185 152.331 300.185 151.712C300.185 151.093 300.047 150.539 299.769 150.048C299.503 149.547 299.135 149.152 298.665 148.864C298.207 148.576 297.689 148.432 297.113 148.432C296.548 148.432 296.036 148.576 295.577 148.864C295.119 149.152 294.756 149.541 294.489 150.032C294.233 150.523 294.105 151.083 294.105 151.712C294.105 152.331 294.233 152.891 294.489 153.392C294.756 153.883 295.113 154.272 295.561 154.56C296.02 154.848 296.537 154.992 297.113 154.992ZM303.849 156V147.424H305.049V156H303.849ZM303.849 145.84V144.08H305.049V145.84H303.849ZM307.505 159.2V147.424H308.705V149.344L308.513 149.008C308.855 148.464 309.308 148.032 309.873 147.712C310.449 147.392 311.105 147.232 311.841 147.232C312.652 147.232 313.372 147.429 314.001 147.824C314.641 148.208 315.143 148.736 315.505 149.408C315.879 150.08 316.065 150.848 316.065 151.712C316.065 152.565 315.879 153.333 315.505 154.016C315.143 154.688 314.641 155.221 314.001 155.616C313.372 156 312.652 156.192 311.841 156.192C311.105 156.192 310.439 156.027 309.841 155.696C309.255 155.355 308.812 154.875 308.513 154.256L308.705 154.08V159.2H307.505ZM311.777 154.992C312.353 154.992 312.865 154.848 313.313 154.56C313.772 154.272 314.129 153.883 314.385 153.392C314.652 152.891 314.785 152.331 314.785 151.712C314.785 151.083 314.652 150.523 314.385 150.032C314.129 149.541 313.772 149.152 313.313 148.864C312.865 148.576 312.353 148.432 311.777 148.432C311.201 148.432 310.679 148.576 310.209 148.864C309.751 149.152 309.383 149.547 309.105 150.048C308.839 150.539 308.705 151.093 308.705 151.712C308.705 152.331 308.839 152.891 309.105 153.392C309.383 153.883 309.751 154.272 310.209 154.56C310.679 154.848 311.201 154.992 311.777 154.992ZM318.177 156V147.424H319.377V156H318.177ZM318.177 145.84V144.08H319.377V145.84H318.177ZM324.81 156.192C323.988 156.192 323.268 155.984 322.65 155.568C322.031 155.152 321.583 154.587 321.306 153.872L322.314 153.392C322.559 153.915 322.9 154.331 323.338 154.64C323.786 154.949 324.276 155.104 324.81 155.104C325.322 155.104 325.754 154.981 326.106 154.736C326.458 154.48 326.634 154.149 326.634 153.744C326.634 153.445 326.548 153.211 326.378 153.04C326.207 152.859 326.01 152.72 325.786 152.624C325.562 152.528 325.364 152.459 325.194 152.416L323.962 152.064C323.172 151.84 322.602 151.525 322.25 151.12C321.898 150.715 321.722 150.245 321.722 149.712C321.722 149.211 321.85 148.773 322.106 148.4C322.362 148.027 322.708 147.739 323.146 147.536C323.583 147.333 324.068 147.232 324.602 147.232C325.327 147.232 325.983 147.424 326.57 147.808C327.167 148.181 327.588 148.704 327.834 149.376L326.81 149.856C326.596 149.376 326.287 149.003 325.882 148.736C325.487 148.459 325.044 148.32 324.554 148.32C324.074 148.32 323.69 148.443 323.402 148.688C323.114 148.933 322.97 149.243 322.97 149.616C322.97 149.904 323.044 150.133 323.194 150.304C323.343 150.475 323.514 150.603 323.706 150.688C323.908 150.773 324.084 150.837 324.234 150.88L325.658 151.296C326.351 151.499 326.89 151.813 327.274 152.24C327.668 152.667 327.866 153.168 327.866 153.744C327.866 154.213 327.732 154.635 327.466 155.008C327.21 155.381 326.852 155.675 326.394 155.888C325.935 156.091 325.407 156.192 324.81 156.192ZM333.894 156.192C333.052 156.192 332.31 155.995 331.67 155.6C331.03 155.205 330.529 154.672 330.166 154C329.804 153.317 329.622 152.549 329.622 151.696C329.622 150.843 329.804 150.08 330.166 149.408C330.529 148.736 331.03 148.208 331.67 147.824C332.31 147.429 333.052 147.232 333.894 147.232C334.428 147.232 334.929 147.328 335.398 147.52C335.868 147.712 336.284 147.973 336.646 148.304C337.009 148.624 337.281 148.997 337.462 149.424L336.374 149.984C336.161 149.525 335.836 149.152 335.398 148.864C334.961 148.576 334.46 148.432 333.894 148.432C333.329 148.432 332.817 148.576 332.358 148.864C331.91 149.141 331.553 149.531 331.286 150.032C331.03 150.523 330.902 151.083 330.902 151.712C330.902 152.331 331.03 152.891 331.286 153.392C331.553 153.883 331.91 154.272 332.358 154.56C332.817 154.848 333.329 154.992 333.894 154.992C334.46 154.992 334.956 154.848 335.382 154.56C335.82 154.272 336.15 153.888 336.374 153.408L337.462 154C337.281 154.416 337.009 154.789 336.646 155.12C336.284 155.451 335.868 155.712 335.398 155.904C334.929 156.096 334.428 156.192 333.894 156.192ZM339.568 156V147.424H340.768V156H339.568ZM339.568 145.84V144.08H340.768V145.84H339.568ZM343.224 156V147.424H344.424V149.088L344.152 149.024C344.366 148.469 344.712 148.032 345.192 147.712C345.683 147.392 346.248 147.232 346.888 147.232C347.496 147.232 348.04 147.371 348.52 147.648C349.011 147.925 349.395 148.309 349.672 148.8C349.96 149.28 350.104 149.824 350.104 150.432V156H348.904V150.896C348.904 150.373 348.808 149.931 348.616 149.568C348.435 149.205 348.174 148.928 347.832 148.736C347.502 148.533 347.118 148.432 346.68 148.432C346.243 148.432 345.854 148.533 345.512 148.736C345.171 148.928 344.904 149.211 344.712 149.584C344.52 149.947 344.424 150.384 344.424 150.896V156H343.224ZM356.46 159.52C355.873 159.52 355.329 159.429 354.828 159.248C354.337 159.067 353.911 158.816 353.548 158.496C353.196 158.187 352.924 157.824 352.732 157.408L353.836 156.816C354.007 157.221 354.311 157.573 354.748 157.872C355.185 158.171 355.745 158.32 356.428 158.32C356.951 158.32 357.431 158.219 357.868 158.016C358.305 157.813 358.657 157.515 358.924 157.12C359.191 156.725 359.324 156.24 359.324 155.664V153.76L359.516 153.936C359.217 154.555 358.775 155.035 358.188 155.376C357.601 155.707 356.961 155.872 356.268 155.872C355.468 155.872 354.748 155.68 354.108 155.296C353.468 154.912 352.961 154.395 352.588 153.744C352.225 153.083 352.044 152.352 352.044 151.552C352.044 150.741 352.225 150.011 352.588 149.36C352.961 148.709 353.463 148.192 354.092 147.808C354.732 147.424 355.457 147.232 356.268 147.232C356.961 147.232 357.591 147.392 358.156 147.712C358.732 148.032 359.185 148.464 359.516 149.008L359.324 149.344V147.424H360.524V155.664C360.524 156.4 360.348 157.056 359.996 157.632C359.655 158.219 359.175 158.677 358.556 159.008C357.948 159.349 357.249 159.52 356.46 159.52ZM356.332 154.672C356.887 154.672 357.388 154.533 357.836 154.256C358.284 153.968 358.641 153.589 358.908 153.12C359.185 152.64 359.324 152.117 359.324 151.552C359.324 150.987 359.185 150.469 358.908 150C358.641 149.52 358.284 149.141 357.836 148.864C357.388 148.576 356.887 148.432 356.332 148.432C355.767 148.432 355.255 148.576 354.796 148.864C354.337 149.141 353.975 149.515 353.708 149.984C353.452 150.453 353.324 150.976 353.324 151.552C353.324 152.117 353.452 152.64 353.708 153.12C353.975 153.589 354.332 153.968 354.78 154.256C355.239 154.533 355.756 154.672 356.332 154.672ZM11.4274 182.192C10.6914 182.192 10.0247 182.027 9.42738 181.696C8.84071 181.355 8.39804 180.875 8.09938 180.256L8.29138 180.08V182H7.09138V169.888H8.29138V175.344L8.09938 175.008C8.44071 174.464 8.89404 174.032 9.45938 173.712C10.0354 173.392 10.6914 173.232 11.4274 173.232C12.238 173.232 12.958 173.429 13.5874 173.824C14.2274 174.208 14.7287 174.736 15.0914 175.408C15.4647 176.08 15.6514 176.848 15.6514 177.712C15.6514 178.565 15.4647 179.333 15.0914 180.016C14.7287 180.688 14.2274 181.221 13.5874 181.616C12.958 182 12.238 182.192 11.4274 182.192ZM11.3634 180.992C11.9394 180.992 12.4514 180.848 12.8994 180.56C13.358 180.272 13.7154 179.883 13.9714 179.392C14.238 178.891 14.3714 178.331 14.3714 177.712C14.3714 177.083 14.238 176.523 13.9714 176.032C13.7154 175.541 13.358 175.152 12.8994 174.864C12.4514 174.576 11.9394 174.432 11.3634 174.432C10.7874 174.432 10.2647 174.576 9.79538 174.864C9.33671 175.152 8.96871 175.547 8.69138 176.048C8.42471 176.539 8.29138 177.093 8.29138 177.712C8.29138 178.331 8.42471 178.891 8.69138 179.392C8.96871 179.883 9.33671 180.272 9.79538 180.56C10.2647 180.848 10.7874 180.992 11.3634 180.992ZM17.7633 182V173.424H18.9633V182H17.7633ZM17.7633 171.84V170.08H18.9633V171.84H17.7633ZM25.7555 182.192C25.0195 182.192 24.3528 182.027 23.7555 181.696C23.1688 181.355 22.7262 180.875 22.4275 180.256L22.6195 180.08V182H21.4195V169.888H22.6195V175.344L22.4275 175.008C22.7688 174.464 23.2222 174.032 23.7875 173.712C24.3635 173.392 25.0195 173.232 25.7555 173.232C26.5662 173.232 27.2862 173.429 27.9155 173.824C28.5555 174.208 29.0568 174.736 29.4195 175.408C29.7928 176.08 29.9795 176.848 29.9795 177.712C29.9795 178.565 29.7928 179.333 29.4195 180.016C29.0568 180.688 28.5555 181.221 27.9155 181.616C27.2862 182 26.5662 182.192 25.7555 182.192ZM25.6915 180.992C26.2675 180.992 26.7795 180.848 27.2275 180.56C27.6862 180.272 28.0435 179.883 28.2995 179.392C28.5662 178.891 28.6995 178.331 28.6995 177.712C28.6995 177.083 28.5662 176.523 28.2995 176.032C28.0435 175.541 27.6862 175.152 27.2275 174.864C26.7795 174.576 26.2675 174.432 25.6915 174.432C25.1155 174.432 24.5928 174.576 24.1235 174.864C23.6648 175.152 23.2968 175.547 23.0195 176.048C22.7528 176.539 22.6195 177.093 22.6195 177.712C22.6195 178.331 22.7528 178.891 23.0195 179.392C23.2968 179.883 23.6648 180.272 24.1235 180.56C24.5928 180.848 25.1155 180.992 25.6915 180.992ZM35.9954 182.192C35.1954 182.192 34.47 182 33.8194 181.616C33.1794 181.221 32.6727 180.683 32.2994 180C31.926 179.317 31.7394 178.544 31.7394 177.68C31.7394 176.816 31.9207 176.053 32.2834 175.392C32.646 174.72 33.1367 174.192 33.7554 173.808C34.3847 173.424 35.0887 173.232 35.8674 173.232C36.486 173.232 37.0354 173.349 37.5154 173.584C38.006 173.808 38.422 174.117 38.7634 174.512C39.1047 174.896 39.366 175.333 39.5474 175.824C39.7287 176.304 39.8194 176.8 39.8194 177.312C39.8194 177.419 39.814 177.541 39.8034 177.68C39.7927 177.808 39.7767 177.941 39.7554 178.08H32.5074V176.96H39.0674L38.4914 177.44C38.5874 176.853 38.518 176.331 38.2834 175.872C38.0594 175.403 37.734 175.035 37.3074 174.768C36.8807 174.491 36.4007 174.352 35.8674 174.352C35.334 174.352 34.838 174.491 34.3794 174.768C33.9314 175.045 33.5794 175.435 33.3234 175.936C33.0674 176.427 32.966 177.013 33.0194 177.696C32.966 178.379 33.0727 178.976 33.3394 179.488C33.6167 179.989 33.99 180.379 34.4594 180.656C34.9394 180.933 35.4514 181.072 35.9954 181.072C36.6247 181.072 37.1527 180.923 37.5794 180.624C38.006 180.325 38.3527 179.952 38.6194 179.504L39.6434 180.048C39.4727 180.432 39.2114 180.789 38.8594 181.12C38.5074 181.44 38.086 181.701 37.5954 181.904C37.1154 182.096 36.582 182.192 35.9954 182.192ZM41.9351 182V173.424H43.1351V175.088L42.8631 175.024C43.0765 174.469 43.4231 174.032 43.9031 173.712C44.3938 173.392 44.9591 173.232 45.5991 173.232C46.2071 173.232 46.7511 173.371 47.2311 173.648C47.7218 173.925 48.1058 174.309 48.3831 174.8C48.6711 175.28 48.8151 175.824 48.8151 176.432V182H47.6151V176.896C47.6151 176.373 47.5191 175.931 47.3271 175.568C47.1458 175.205 46.8845 174.928 46.5431 174.736C46.2125 174.533 45.8285 174.432 45.3911 174.432C44.9538 174.432 44.5645 174.533 44.2231 174.736C43.8818 174.928 43.6151 175.211 43.4231 175.584C43.2311 175.947 43.1351 176.384 43.1351 176.896V182H41.9351ZM54.979 182.192C54.179 182.192 53.459 182 52.819 181.616C52.179 181.221 51.6723 180.688 51.299 180.016C50.9363 179.333 50.755 178.565 50.755 177.712C50.755 176.848 50.9363 176.08 51.299 175.408C51.6723 174.736 52.1737 174.208 52.803 173.824C53.443 173.429 54.1683 173.232 54.979 173.232C55.715 173.232 56.371 173.392 56.947 173.712C57.523 174.032 57.9763 174.464 58.307 175.008L58.115 175.344V169.888H59.315V182H58.115V180.08L58.307 180.256C58.0083 180.875 57.5603 181.355 56.963 181.696C56.3763 182.027 55.715 182.192 54.979 182.192ZM55.043 180.992C55.619 180.992 56.1363 180.848 56.595 180.56C57.0643 180.272 57.4323 179.883 57.699 179.392C57.9763 178.891 58.115 178.331 58.115 177.712C58.115 177.093 57.9763 176.539 57.699 176.048C57.4323 175.547 57.0643 175.152 56.595 174.864C56.1363 174.576 55.619 174.432 55.043 174.432C54.4777 174.432 53.9657 174.576 53.507 174.864C53.0483 175.152 52.6857 175.541 52.419 176.032C52.163 176.523 52.035 177.083 52.035 177.712C52.035 178.331 52.163 178.891 52.419 179.392C52.6857 179.883 53.043 180.272 53.491 180.56C53.9497 180.848 54.467 180.992 55.043 180.992ZM64.8189 182.192C64.2215 182.192 63.6775 182.053 63.1869 181.776C62.6962 181.488 62.3069 181.093 62.0189 180.592C61.7415 180.08 61.6029 179.493 61.6029 178.832V173.424H62.8029V178.688C62.8029 179.147 62.8935 179.552 63.0749 179.904C63.2669 180.245 63.5282 180.512 63.8589 180.704C64.2002 180.896 64.5895 180.992 65.0269 180.992C65.4642 180.992 65.8535 180.896 66.1949 180.704C66.5362 180.501 66.8029 180.219 66.9949 179.856C67.1869 179.483 67.2829 179.04 67.2829 178.528V173.424H68.4829V182H67.2829V180.336L67.5549 180.4C67.3522 180.955 67.0055 181.392 66.5149 181.712C66.0242 182.032 65.4589 182.192 64.8189 182.192ZM70.9508 182V173.424H72.1508V175.056L71.9588 174.816C72.1934 174.315 72.5401 173.925 72.9988 173.648C73.4681 173.371 73.9801 173.232 74.5348 173.232C75.1961 173.232 75.7934 173.419 76.3268 173.792C76.8601 174.165 77.2388 174.651 77.4628 175.248L77.1268 175.264C77.3401 174.603 77.7081 174.101 78.2308 173.76C78.7641 173.408 79.3508 173.232 79.9908 173.232C80.5668 173.232 81.0948 173.371 81.5748 173.648C82.0654 173.925 82.4548 174.309 82.7428 174.8C83.0414 175.28 83.1908 175.824 83.1908 176.432V182H81.9908V176.896C81.9908 176.373 81.8948 175.931 81.7028 175.568C81.5214 175.205 81.2708 174.928 80.9508 174.736C80.6308 174.533 80.2628 174.432 79.8468 174.432C79.4414 174.432 79.0734 174.533 78.7428 174.736C78.4121 174.928 78.1508 175.211 77.9588 175.584C77.7668 175.947 77.6708 176.384 77.6708 176.896V182H76.4708V176.896C76.4708 176.373 76.3748 175.931 76.1828 175.568C76.0014 175.205 75.7508 174.928 75.4308 174.736C75.1108 174.533 74.7428 174.432 74.3268 174.432C73.9108 174.432 73.5374 174.533 73.2068 174.736C72.8868 174.928 72.6308 175.211 72.4388 175.584C72.2468 175.947 72.1508 176.384 72.1508 176.896V182H70.9508ZM92.1048 182.192C91.3048 182.192 90.5794 182 89.9288 181.616C89.2888 181.221 88.7821 180.683 88.4088 180C88.0354 179.317 87.8488 178.544 87.8488 177.68C87.8488 176.816 88.0301 176.053 88.3928 175.392C88.7554 174.72 89.2461 174.192 89.8648 173.808C90.4941 173.424 91.1981 173.232 91.9768 173.232C92.5954 173.232 93.1448 173.349 93.6248 173.584C94.1154 173.808 94.5314 174.117 94.8728 174.512C95.2141 174.896 95.4754 175.333 95.6568 175.824C95.8381 176.304 95.9288 176.8 95.9288 177.312C95.9288 177.419 95.9234 177.541 95.9128 177.68C95.9021 177.808 95.8861 177.941 95.8648 178.08H88.6168V176.96H95.1768L94.6008 177.44C94.6968 176.853 94.6274 176.331 94.3928 175.872C94.1688 175.403 93.8434 175.035 93.4168 174.768C92.9901 174.491 92.5101 174.352 91.9768 174.352C91.4434 174.352 90.9474 174.491 90.4888 174.768C90.0408 175.045 89.6888 175.435 89.4328 175.936C89.1768 176.427 89.0754 177.013 89.1288 177.696C89.0754 178.379 89.1821 178.976 89.4488 179.488C89.7261 179.989 90.0994 180.379 90.5688 180.656C91.0488 180.933 91.5608 181.072 92.1048 181.072C92.7341 181.072 93.2621 180.923 93.6888 180.624C94.1154 180.325 94.4621 179.952 94.7288 179.504L95.7528 180.048C95.5821 180.432 95.3208 180.789 94.9688 181.12C94.6168 181.44 94.1954 181.701 93.7048 181.904C93.2248 182.096 92.6914 182.192 92.1048 182.192ZM101.021 182.192C100.199 182.192 99.4792 181.984 98.8605 181.568C98.2418 181.152 97.7938 180.587 97.5165 179.872L98.5245 179.392C98.7698 179.915 99.1112 180.331 99.5485 180.64C99.9965 180.949 100.487 181.104 101.021 181.104C101.533 181.104 101.965 180.981 102.317 180.736C102.669 180.48 102.845 180.149 102.845 179.744C102.845 179.445 102.759 179.211 102.589 179.04C102.418 178.859 102.221 178.72 101.997 178.624C101.773 178.528 101.575 178.459 101.405 178.416L100.173 178.064C99.3832 177.84 98.8125 177.525 98.4605 177.12C98.1085 176.715 97.9325 176.245 97.9325 175.712C97.9325 175.211 98.0605 174.773 98.3165 174.4C98.5725 174.027 98.9192 173.739 99.3565 173.536C99.7938 173.333 100.279 173.232 100.812 173.232C101.538 173.232 102.194 173.424 102.781 173.808C103.378 174.181 103.799 174.704 104.045 175.376L103.021 175.856C102.807 175.376 102.498 175.003 102.093 174.736C101.698 174.459 101.255 174.32 100.765 174.32C100.285 174.32 99.9005 174.443 99.6125 174.688C99.3245 174.933 99.1805 175.243 99.1805 175.616C99.1805 175.904 99.2552 176.133 99.4045 176.304C99.5538 176.475 99.7245 176.603 99.9165 176.688C100.119 176.773 100.295 176.837 100.445 176.88L101.869 177.296C102.562 177.499 103.101 177.813 103.485 178.24C103.879 178.667 104.077 179.168 104.077 179.744C104.077 180.213 103.943 180.635 103.677 181.008C103.421 181.381 103.063 181.675 102.605 181.888C102.146 182.091 101.618 182.192 101.021 182.192ZM109.465 182.096C108.697 182.096 108.105 181.872 107.689 181.424C107.273 180.976 107.065 180.336 107.065 179.504V174.624H105.481V173.424H105.881C106.244 173.424 106.532 173.307 106.745 173.072C106.958 172.827 107.065 172.523 107.065 172.16V171.44H108.265V173.424H110.153V174.624H108.265V179.504C108.265 179.792 108.308 180.048 108.393 180.272C108.478 180.485 108.622 180.656 108.825 180.784C109.038 180.912 109.321 180.976 109.673 180.976C109.758 180.976 109.86 180.971 109.977 180.96C110.094 180.949 110.196 180.939 110.281 180.928V182C110.153 182.032 110.009 182.053 109.849 182.064C109.689 182.085 109.561 182.096 109.465 182.096ZM112.804 182V180.24H114.084V182H112.804ZM119.861 182V170.08H123.957C124.736 170.08 125.418 170.235 126.005 170.544C126.592 170.843 127.045 171.269 127.365 171.824C127.696 172.368 127.861 173.003 127.861 173.728C127.861 174.571 127.637 175.291 127.189 175.888C126.752 176.485 126.154 176.907 125.397 177.152L128.181 182H126.677L123.765 176.864L124.629 177.36H121.141V182H119.861ZM121.141 176.16H124.021C124.533 176.16 124.981 176.064 125.365 175.872C125.749 175.669 126.048 175.387 126.261 175.024C126.474 174.651 126.581 174.213 126.581 173.712C126.581 173.211 126.474 172.779 126.261 172.416C126.048 172.053 125.749 171.776 125.365 171.584C124.981 171.381 124.533 171.28 124.021 171.28H121.141V176.16ZM129.935 182V173.424H131.135V182H129.935ZM129.935 171.84V170.08H131.135V171.84H129.935ZM136.567 182.192C135.746 182.192 135.026 181.984 134.407 181.568C133.789 181.152 133.341 180.587 133.063 179.872L134.071 179.392C134.317 179.915 134.658 180.331 135.095 180.64C135.543 180.949 136.034 181.104 136.567 181.104C137.079 181.104 137.511 180.981 137.863 180.736C138.215 180.48 138.391 180.149 138.391 179.744C138.391 179.445 138.306 179.211 138.135 179.04C137.965 178.859 137.767 178.72 137.543 178.624C137.319 178.528 137.122 178.459 136.951 178.416L135.719 178.064C134.93 177.84 134.359 177.525 134.007 177.12C133.655 176.715 133.479 176.245 133.479 175.712C133.479 175.211 133.607 174.773 133.863 174.4C134.119 174.027 134.466 173.739 134.903 173.536C135.341 173.333 135.826 173.232 136.359 173.232C137.085 173.232 137.741 173.424 138.327 173.808C138.925 174.181 139.346 174.704 139.591 175.376L138.567 175.856C138.354 175.376 138.045 175.003 137.639 174.736C137.245 174.459 136.802 174.32 136.311 174.32C135.831 174.32 135.447 174.443 135.159 174.688C134.871 174.933 134.727 175.243 134.727 175.616C134.727 175.904 134.802 176.133 134.951 176.304C135.101 176.475 135.271 176.603 135.463 176.688C135.666 176.773 135.842 176.837 135.991 176.88L137.415 177.296C138.109 177.499 138.647 177.813 139.031 178.24C139.426 178.667 139.623 179.168 139.623 179.744C139.623 180.213 139.49 180.635 139.223 181.008C138.967 181.381 138.61 181.675 138.151 181.888C137.693 182.091 137.165 182.192 136.567 182.192ZM144.772 182.192C144.175 182.192 143.631 182.053 143.14 181.776C142.649 181.488 142.26 181.093 141.972 180.592C141.695 180.08 141.556 179.493 141.556 178.832V173.424H142.756V178.688C142.756 179.147 142.847 179.552 143.028 179.904C143.22 180.245 143.481 180.512 143.812 180.704C144.153 180.896 144.543 180.992 144.98 180.992C145.417 180.992 145.807 180.896 146.148 180.704C146.489 180.501 146.756 180.219 146.948 179.856C147.14 179.483 147.236 179.04 147.236 178.528V173.424H148.436V182H147.236V180.336L147.508 180.4C147.305 180.955 146.959 181.392 146.468 181.712C145.977 182.032 145.412 182.192 144.772 182.192ZM153.88 182.192C153.059 182.192 152.339 181.984 151.72 181.568C151.101 181.152 150.653 180.587 150.376 179.872L151.384 179.392C151.629 179.915 151.971 180.331 152.408 180.64C152.856 180.949 153.347 181.104 153.88 181.104C154.392 181.104 154.824 180.981 155.176 180.736C155.528 180.48 155.704 180.149 155.704 179.744C155.704 179.445 155.619 179.211 155.448 179.04C155.277 178.859 155.08 178.72 154.856 178.624C154.632 178.528 154.435 178.459 154.264 178.416L153.032 178.064C152.243 177.84 151.672 177.525 151.32 177.12C150.968 176.715 150.792 176.245 150.792 175.712C150.792 175.211 150.92 174.773 151.176 174.4C151.432 174.027 151.779 173.739 152.216 173.536C152.653 173.333 153.139 173.232 153.672 173.232C154.397 173.232 155.053 173.424 155.64 173.808C156.237 174.181 156.659 174.704 156.904 175.376L155.88 175.856C155.667 175.376 155.357 175.003 154.952 174.736C154.557 174.459 154.115 174.32 153.624 174.32C153.144 174.32 152.76 174.443 152.472 174.688C152.184 174.933 152.04 175.243 152.04 175.616C152.04 175.904 152.115 176.133 152.264 176.304C152.413 176.475 152.584 176.603 152.776 176.688C152.979 176.773 153.155 176.837 153.304 176.88L154.728 177.296C155.421 177.499 155.96 177.813 156.344 178.24C156.739 178.667 156.936 179.168 156.936 179.744C156.936 180.213 156.803 180.635 156.536 181.008C156.28 181.381 155.923 181.675 155.464 181.888C155.005 182.091 154.477 182.192 153.88 182.192ZM164.803 182.192C164.206 182.192 163.662 182.053 163.171 181.776C162.681 181.488 162.291 181.093 162.003 180.592C161.726 180.08 161.587 179.493 161.587 178.832V173.424H162.787V178.688C162.787 179.147 162.878 179.552 163.059 179.904C163.251 180.245 163.513 180.512 163.843 180.704C164.185 180.896 164.574 180.992 165.011 180.992C165.449 180.992 165.838 180.896 166.179 180.704C166.521 180.501 166.787 180.219 166.979 179.856C167.171 179.483 167.267 179.04 167.267 178.528V173.424H168.467V182H167.267V180.336L167.539 180.4C167.337 180.955 166.99 181.392 166.499 181.712C166.009 182.032 165.443 182.192 164.803 182.192ZM170.935 182V169.888H172.135V182H170.935ZM177.871 182.096C177.103 182.096 176.511 181.872 176.095 181.424C175.679 180.976 175.471 180.336 175.471 179.504V174.624H173.887V173.424H174.287C174.65 173.424 174.938 173.307 175.151 173.072C175.365 172.827 175.471 172.523 175.471 172.16V171.44H176.671V173.424H178.559V174.624H176.671V179.504C176.671 179.792 176.714 180.048 176.799 180.272C176.885 180.485 177.029 180.656 177.231 180.784C177.445 180.912 177.727 180.976 178.079 180.976C178.165 180.976 178.266 180.971 178.383 180.96C178.501 180.949 178.602 180.939 178.687 180.928V182C178.559 182.032 178.415 182.053 178.255 182.064C178.095 182.085 177.967 182.096 177.871 182.096ZM180.795 182V173.424H181.995V174.832L181.835 174.624C182.037 174.219 182.341 173.899 182.747 173.664C183.163 173.429 183.664 173.312 184.251 173.312H184.795V174.512H184.043C183.424 174.512 182.928 174.704 182.555 175.088C182.181 175.472 181.995 176.016 181.995 176.72V182H180.795ZM186.201 182V173.424H187.401V182H186.201ZM186.201 171.84V170.08H187.401V171.84H186.201ZM193.777 182.192C192.934 182.192 192.193 181.995 191.553 181.6C190.913 181.205 190.412 180.672 190.049 180C189.686 179.317 189.505 178.549 189.505 177.696C189.505 176.843 189.686 176.08 190.049 175.408C190.412 174.736 190.913 174.208 191.553 173.824C192.193 173.429 192.934 173.232 193.777 173.232C194.31 173.232 194.812 173.328 195.281 173.52C195.75 173.712 196.166 173.973 196.529 174.304C196.892 174.624 197.164 174.997 197.345 175.424L196.257 175.984C196.044 175.525 195.718 175.152 195.281 174.864C194.844 174.576 194.342 174.432 193.777 174.432C193.212 174.432 192.7 174.576 192.241 174.864C191.793 175.141 191.436 175.531 191.169 176.032C190.913 176.523 190.785 177.083 190.785 177.712C190.785 178.331 190.913 178.891 191.169 179.392C191.436 179.883 191.793 180.272 192.241 180.56C192.7 180.848 193.212 180.992 193.777 180.992C194.342 180.992 194.838 180.848 195.265 180.56C195.702 180.272 196.033 179.888 196.257 179.408L197.345 180C197.164 180.416 196.892 180.789 196.529 181.12C196.166 181.451 195.75 181.712 195.281 181.904C194.812 182.096 194.31 182.192 193.777 182.192ZM199.451 182V173.424H200.651V182H199.451ZM199.451 171.84V170.08H200.651V171.84H199.451ZM207.011 182.192C206.211 182.192 205.486 182 204.835 181.616C204.195 181.221 203.688 180.683 203.315 180C202.942 179.317 202.755 178.544 202.755 177.68C202.755 176.816 202.936 176.053 203.299 175.392C203.662 174.72 204.152 174.192 204.771 173.808C205.4 173.424 206.104 173.232 206.883 173.232C207.502 173.232 208.051 173.349 208.531 173.584C209.022 173.808 209.438 174.117 209.779 174.512C210.12 174.896 210.382 175.333 210.563 175.824C210.744 176.304 210.835 176.8 210.835 177.312C210.835 177.419 210.83 177.541 210.819 177.68C210.808 177.808 210.792 177.941 210.771 178.08H203.523V176.96H210.083L209.507 177.44C209.603 176.853 209.534 176.331 209.299 175.872C209.075 175.403 208.75 175.035 208.323 174.768C207.896 174.491 207.416 174.352 206.883 174.352C206.35 174.352 205.854 174.491 205.395 174.768C204.947 175.045 204.595 175.435 204.339 175.936C204.083 176.427 203.982 177.013 204.035 177.696C203.982 178.379 204.088 178.976 204.355 179.488C204.632 179.989 205.006 180.379 205.475 180.656C205.955 180.933 206.467 181.072 207.011 181.072C207.64 181.072 208.168 180.923 208.595 180.624C209.022 180.325 209.368 179.952 209.635 179.504L210.659 180.048C210.488 180.432 210.227 180.789 209.875 181.12C209.523 181.44 209.102 181.701 208.611 181.904C208.131 182.096 207.598 182.192 207.011 182.192ZM215.927 182.192C215.105 182.192 214.385 181.984 213.767 181.568C213.148 181.152 212.7 180.587 212.423 179.872L213.431 179.392C213.676 179.915 214.017 180.331 214.455 180.64C214.903 180.949 215.393 181.104 215.927 181.104C216.439 181.104 216.871 180.981 217.223 180.736C217.575 180.48 217.751 180.149 217.751 179.744C217.751 179.445 217.665 179.211 217.495 179.04C217.324 178.859 217.127 178.72 216.903 178.624C216.679 178.528 216.481 178.459 216.311 178.416L215.079 178.064C214.289 177.84 213.719 177.525 213.367 177.12C213.015 176.715 212.839 176.245 212.839 175.712C212.839 175.211 212.967 174.773 213.223 174.4C213.479 174.027 213.825 173.739 214.263 173.536C214.7 173.333 215.185 173.232 215.719 173.232C216.444 173.232 217.1 173.424 217.687 173.808C218.284 174.181 218.705 174.704 218.951 175.376L217.927 175.856C217.713 175.376 217.404 175.003 216.999 174.736C216.604 174.459 216.161 174.32 215.671 174.32C215.191 174.32 214.807 174.443 214.519 174.688C214.231 174.933 214.087 175.243 214.087 175.616C214.087 175.904 214.161 176.133 214.311 176.304C214.46 176.475 214.631 176.603 214.823 176.688C215.025 176.773 215.201 176.837 215.351 176.88L216.775 177.296C217.468 177.499 218.007 177.813 218.391 178.24C218.785 178.667 218.983 179.168 218.983 179.744C218.983 180.213 218.849 180.635 218.583 181.008C218.327 181.381 217.969 181.675 217.511 181.888C217.052 182.091 216.524 182.192 215.927 182.192ZM227.09 182.096C226.322 182.096 225.73 181.872 225.314 181.424C224.898 180.976 224.69 180.336 224.69 179.504V174.624H223.106V173.424H223.506C223.869 173.424 224.157 173.307 224.37 173.072C224.583 172.827 224.69 172.523 224.69 172.16V171.44H225.89V173.424H227.778V174.624H225.89V179.504C225.89 179.792 225.933 180.048 226.018 180.272C226.103 180.485 226.247 180.656 226.45 180.784C226.663 180.912 226.946 180.976 227.298 180.976C227.383 180.976 227.485 180.971 227.602 180.96C227.719 180.949 227.821 180.939 227.906 180.928V182C227.778 182.032 227.634 182.053 227.474 182.064C227.314 182.085 227.186 182.096 227.09 182.096ZM230.013 182V173.424H231.213V174.832L231.053 174.624C231.256 174.219 231.56 173.899 231.965 173.664C232.381 173.429 232.883 173.312 233.469 173.312H234.013V174.512H233.261C232.643 174.512 232.147 174.704 231.773 175.088C231.4 175.472 231.213 176.016 231.213 176.72V182H230.013ZM235.42 182V173.424H236.62V182H235.42ZM235.42 171.84V170.08H236.62V171.84H235.42ZM242.052 182.192C241.23 182.192 240.51 181.984 239.892 181.568C239.273 181.152 238.825 180.587 238.548 179.872L239.556 179.392C239.801 179.915 240.142 180.331 240.58 180.64C241.028 180.949 241.518 181.104 242.052 181.104C242.564 181.104 242.996 180.981 243.348 180.736C243.7 180.48 243.876 180.149 243.876 179.744C243.876 179.445 243.79 179.211 243.62 179.04C243.449 178.859 243.252 178.72 243.028 178.624C242.804 178.528 242.606 178.459 242.436 178.416L241.204 178.064C240.414 177.84 239.844 177.525 239.492 177.12C239.14 176.715 238.964 176.245 238.964 175.712C238.964 175.211 239.092 174.773 239.348 174.4C239.604 174.027 239.95 173.739 240.388 173.536C240.825 173.333 241.31 173.232 241.844 173.232C242.569 173.232 243.225 173.424 243.812 173.808C244.409 174.181 244.83 174.704 245.076 175.376L244.052 175.856C243.838 175.376 243.529 175.003 243.124 174.736C242.729 174.459 242.286 174.32 241.796 174.32C241.316 174.32 240.932 174.443 240.644 174.688C240.356 174.933 240.212 175.243 240.212 175.616C240.212 175.904 240.286 176.133 240.436 176.304C240.585 176.475 240.756 176.603 240.948 176.688C241.15 176.773 241.326 176.837 241.476 176.88L242.9 177.296C243.593 177.499 244.132 177.813 244.516 178.24C244.91 178.667 245.108 179.168 245.108 179.744C245.108 180.213 244.974 180.635 244.708 181.008C244.452 181.381 244.094 181.675 243.636 181.888C243.177 182.091 242.649 182.192 242.052 182.192ZM250.496 182.096C249.728 182.096 249.136 181.872 248.72 181.424C248.304 180.976 248.096 180.336 248.096 179.504V174.624H246.512V173.424H246.912C247.275 173.424 247.563 173.307 247.776 173.072C247.99 172.827 248.096 172.523 248.096 172.16V171.44H249.296V173.424H251.184V174.624H249.296V179.504C249.296 179.792 249.339 180.048 249.424 180.272C249.51 180.485 249.654 180.656 249.856 180.784C250.07 180.912 250.352 180.976 250.704 180.976C250.79 180.976 250.891 180.971 251.008 180.96C251.126 180.949 251.227 180.939 251.312 180.928V182C251.184 182.032 251.04 182.053 250.88 182.064C250.72 182.085 250.592 182.096 250.496 182.096ZM253.42 182V173.424H254.62V182H253.42ZM253.42 171.84V170.08H254.62V171.84H253.42ZM264.084 185.2V180.08L264.276 180.256C263.977 180.875 263.529 181.355 262.932 181.696C262.345 182.027 261.684 182.192 260.948 182.192C260.148 182.192 259.428 182 258.788 181.616C258.148 181.221 257.641 180.688 257.268 180.016C256.905 179.333 256.724 178.565 256.724 177.712C256.724 176.848 256.905 176.08 257.268 175.408C257.641 174.736 258.142 174.208 258.772 173.824C259.412 173.429 260.137 173.232 260.948 173.232C261.684 173.232 262.34 173.392 262.916 173.712C263.492 174.032 263.945 174.464 264.276 175.008L264.084 175.344V173.424H265.284V185.2H264.084ZM261.012 180.992C261.588 180.992 262.105 180.848 262.564 180.56C263.033 180.272 263.401 179.883 263.668 179.392C263.945 178.891 264.084 178.331 264.084 177.712C264.084 177.093 263.945 176.539 263.668 176.048C263.401 175.547 263.033 175.152 262.564 174.864C262.105 174.576 261.588 174.432 261.012 174.432C260.446 174.432 259.934 174.576 259.476 174.864C259.017 175.152 258.654 175.541 258.388 176.032C258.132 176.523 258.004 177.083 258.004 177.712C258.004 178.331 258.132 178.891 258.388 179.392C258.654 179.883 259.012 180.272 259.46 180.56C259.918 180.848 260.436 180.992 261.012 180.992ZM270.788 182.192C270.19 182.192 269.646 182.053 269.156 181.776C268.665 181.488 268.276 181.093 267.988 180.592C267.71 180.08 267.572 179.493 267.572 178.832V173.424H268.772V178.688C268.772 179.147 268.862 179.552 269.044 179.904C269.236 180.245 269.497 180.512 269.828 180.704C270.169 180.896 270.558 180.992 270.996 180.992C271.433 180.992 271.822 180.896 272.164 180.704C272.505 180.501 272.772 180.219 272.964 179.856C273.156 179.483 273.252 179.04 273.252 178.528V173.424H274.452V182H273.252V180.336L273.524 180.4C273.321 180.955 272.974 181.392 272.484 181.712C271.993 182.032 271.428 182.192 270.788 182.192ZM280.824 182.192C280.024 182.192 279.298 182 278.648 181.616C278.008 181.221 277.501 180.683 277.128 180C276.754 179.317 276.568 178.544 276.568 177.68C276.568 176.816 276.749 176.053 277.112 175.392C277.474 174.72 277.965 174.192 278.584 173.808C279.213 173.424 279.917 173.232 280.696 173.232C281.314 173.232 281.864 173.349 282.344 173.584C282.834 173.808 283.25 174.117 283.592 174.512C283.933 174.896 284.194 175.333 284.376 175.824C284.557 176.304 284.648 176.8 284.648 177.312C284.648 177.419 284.642 177.541 284.632 177.68C284.621 177.808 284.605 177.941 284.584 178.08H277.336V176.96H283.896L283.32 177.44C283.416 176.853 283.346 176.331 283.112 175.872C282.888 175.403 282.562 175.035 282.136 174.768C281.709 174.491 281.229 174.352 280.696 174.352C280.162 174.352 279.666 174.491 279.208 174.768C278.76 175.045 278.408 175.435 278.152 175.936C277.896 176.427 277.794 177.013 277.848 177.696C277.794 178.379 277.901 178.976 278.168 179.488C278.445 179.989 278.818 180.379 279.288 180.656C279.768 180.933 280.28 181.072 280.824 181.072C281.453 181.072 281.981 180.923 282.408 180.624C282.834 180.325 283.181 179.952 283.448 179.504L284.472 180.048C284.301 180.432 284.04 180.789 283.688 181.12C283.336 181.44 282.914 181.701 282.424 181.904C281.944 182.096 281.41 182.192 280.824 182.192ZM289.482 182V173.424H290.682V175.088L290.41 175.024C290.623 174.469 290.97 174.032 291.45 173.712C291.941 173.392 292.506 173.232 293.146 173.232C293.754 173.232 294.298 173.371 294.778 173.648C295.269 173.925 295.653 174.309 295.93 174.8C296.218 175.28 296.362 175.824 296.362 176.432V182H295.162V176.896C295.162 176.373 295.066 175.931 294.874 175.568C294.693 175.205 294.431 174.928 294.09 174.736C293.759 174.533 293.375 174.432 292.938 174.432C292.501 174.432 292.111 174.533 291.77 174.736C291.429 174.928 291.162 175.211 290.97 175.584C290.778 175.947 290.682 176.384 290.682 176.896V182H289.482ZM301.694 182.192C301.097 182.192 300.553 182.053 300.062 181.776C299.571 181.488 299.182 181.093 298.894 180.592C298.617 180.08 298.478 179.493 298.478 178.832V173.424H299.678V178.688C299.678 179.147 299.769 179.552 299.95 179.904C300.142 180.245 300.403 180.512 300.734 180.704C301.075 180.896 301.465 180.992 301.902 180.992C302.339 180.992 302.729 180.896 303.07 180.704C303.411 180.501 303.678 180.219 303.87 179.856C304.062 179.483 304.158 179.04 304.158 178.528V173.424H305.358V182H304.158V180.336L304.43 180.4C304.227 180.955 303.881 181.392 303.39 181.712C302.899 182.032 302.334 182.192 301.694 182.192ZM307.826 182V169.888H309.026V182H307.826ZM311.482 182V169.888H312.682V182H311.482ZM317.618 182.192C317.074 182.192 316.589 182.091 316.162 181.888C315.736 181.675 315.4 181.387 315.154 181.024C314.909 180.661 314.786 180.245 314.786 179.776C314.786 179.328 314.882 178.923 315.074 178.56C315.266 178.187 315.565 177.872 315.97 177.616C316.376 177.36 316.893 177.179 317.522 177.072L320.882 176.512V177.6L317.81 178.112C317.192 178.219 316.744 178.416 316.466 178.704C316.2 178.992 316.066 179.333 316.066 179.728C316.066 180.112 316.216 180.437 316.514 180.704C316.824 180.971 317.218 181.104 317.698 181.104C318.285 181.104 318.797 180.981 319.234 180.736C319.672 180.48 320.013 180.139 320.258 179.712C320.504 179.285 320.626 178.811 320.626 178.288V176.112C320.626 175.6 320.44 175.184 320.066 174.864C319.693 174.544 319.208 174.384 318.61 174.384C318.088 174.384 317.629 174.517 317.234 174.784C316.84 175.04 316.546 175.376 316.354 175.792L315.266 175.2C315.426 174.837 315.677 174.507 316.018 174.208C316.37 173.909 316.77 173.675 317.218 173.504C317.666 173.323 318.13 173.232 318.61 173.232C319.24 173.232 319.794 173.355 320.274 173.6C320.765 173.845 321.144 174.187 321.41 174.624C321.688 175.051 321.826 175.547 321.826 176.112V182H320.626V180.288L320.802 180.464C320.653 180.784 320.418 181.077 320.098 181.344C319.789 181.6 319.421 181.808 318.994 181.968C318.578 182.117 318.12 182.192 317.618 182.192ZM329.493 182.192C328.949 182.192 328.464 182.091 328.037 181.888C327.611 181.675 327.275 181.387 327.029 181.024C326.784 180.661 326.661 180.245 326.661 179.776C326.661 179.328 326.757 178.923 326.949 178.56C327.141 178.187 327.44 177.872 327.845 177.616C328.251 177.36 328.768 177.179 329.397 177.072L332.757 176.512V177.6L329.685 178.112C329.067 178.219 328.619 178.416 328.341 178.704C328.075 178.992 327.941 179.333 327.941 179.728C327.941 180.112 328.091 180.437 328.389 180.704C328.699 180.971 329.093 181.104 329.573 181.104C330.16 181.104 330.672 180.981 331.109 180.736C331.547 180.48 331.888 180.139 332.133 179.712C332.379 179.285 332.501 178.811 332.501 178.288V176.112C332.501 175.6 332.315 175.184 331.941 174.864C331.568 174.544 331.083 174.384 330.485 174.384C329.963 174.384 329.504 174.517 329.109 174.784C328.715 175.04 328.421 175.376 328.229 175.792L327.141 175.2C327.301 174.837 327.552 174.507 327.893 174.208C328.245 173.909 328.645 173.675 329.093 173.504C329.541 173.323 330.005 173.232 330.485 173.232C331.115 173.232 331.669 173.355 332.149 173.6C332.64 173.845 333.019 174.187 333.285 174.624C333.563 175.051 333.701 175.547 333.701 176.112V182H332.501V180.288L332.677 180.464C332.528 180.784 332.293 181.077 331.973 181.344C331.664 181.6 331.296 181.808 330.869 181.968C330.453 182.117 329.995 182.192 329.493 182.192ZM336.17 182V169.888H337.37V182H336.17ZM339.826 182V173.424H341.026V182H339.826ZM339.826 171.84V170.08H341.026V171.84H339.826ZM350.49 185.2V180.08L350.682 180.256C350.383 180.875 349.935 181.355 349.338 181.696C348.751 182.027 348.09 182.192 347.354 182.192C346.554 182.192 345.834 182 345.194 181.616C344.554 181.221 344.047 180.688 343.674 180.016C343.311 179.333 343.13 178.565 343.13 177.712C343.13 176.848 343.311 176.08 343.674 175.408C344.047 174.736 344.549 174.208 345.178 173.824C345.818 173.429 346.543 173.232 347.354 173.232C348.09 173.232 348.746 173.392 349.322 173.712C349.898 174.032 350.351 174.464 350.682 175.008L350.49 175.344V173.424H351.69V185.2H350.49ZM347.418 180.992C347.994 180.992 348.511 180.848 348.97 180.56C349.439 180.272 349.807 179.883 350.074 179.392C350.351 178.891 350.49 178.331 350.49 177.712C350.49 177.093 350.351 176.539 350.074 176.048C349.807 175.547 349.439 175.152 348.97 174.864C348.511 174.576 347.994 174.432 347.418 174.432C346.853 174.432 346.341 174.576 345.882 174.864C345.423 175.152 345.061 175.541 344.794 176.032C344.538 176.523 344.41 177.083 344.41 177.712C344.41 178.331 344.538 178.891 344.794 179.392C345.061 179.883 345.418 180.272 345.866 180.56C346.325 180.848 346.842 180.992 347.418 180.992ZM357.194 182.192C356.597 182.192 356.053 182.053 355.562 181.776C355.071 181.488 354.682 181.093 354.394 180.592C354.117 180.08 353.978 179.493 353.978 178.832V173.424H355.178V178.688C355.178 179.147 355.269 179.552 355.45 179.904C355.642 180.245 355.903 180.512 356.234 180.704C356.575 180.896 356.965 180.992 357.402 180.992C357.839 180.992 358.229 180.896 358.57 180.704C358.911 180.501 359.178 180.219 359.37 179.856C359.562 179.483 359.658 179.04 359.658 178.528V173.424H360.858V182H359.658V180.336L359.93 180.4C359.727 180.955 359.381 181.392 358.89 181.712C358.399 182.032 357.834 182.192 357.194 182.192ZM367.23 182.192C366.43 182.192 365.704 182 365.054 181.616C364.414 181.221 363.907 180.683 363.534 180C363.16 179.317 362.974 178.544 362.974 177.68C362.974 176.816 363.155 176.053 363.518 175.392C363.88 174.72 364.371 174.192 364.99 173.808C365.619 173.424 366.323 173.232 367.102 173.232C367.72 173.232 368.27 173.349 368.75 173.584C369.24 173.808 369.656 174.117 369.998 174.512C370.339 174.896 370.6 175.333 370.782 175.824C370.963 176.304 371.054 176.8 371.054 177.312C371.054 177.419 371.048 177.541 371.038 177.68C371.027 177.808 371.011 177.941 370.99 178.08H363.742V176.96H370.302L369.726 177.44C369.822 176.853 369.752 176.331 369.518 175.872C369.294 175.403 368.968 175.035 368.542 174.768C368.115 174.491 367.635 174.352 367.102 174.352C366.568 174.352 366.072 174.491 365.614 174.768C365.166 175.045 364.814 175.435 364.558 175.936C364.302 176.427 364.2 177.013 364.254 177.696C364.2 178.379 364.307 178.976 364.574 179.488C364.851 179.989 365.224 180.379 365.694 180.656C366.174 180.933 366.686 181.072 367.23 181.072C367.859 181.072 368.387 180.923 368.814 180.624C369.24 180.325 369.587 179.952 369.854 179.504L370.878 180.048C370.707 180.432 370.446 180.789 370.094 181.12C369.742 181.44 369.32 181.701 368.83 181.904C368.35 182.096 367.816 182.192 367.23 182.192ZM376.45 182.096C375.682 182.096 375.09 181.872 374.674 181.424C374.258 180.976 374.049 180.336 374.049 179.504V174.624H372.465V173.424H372.866C373.228 173.424 373.516 173.307 373.73 173.072C373.943 172.827 374.049 172.523 374.049 172.16V171.44H375.25V173.424H377.138V174.624H375.25V179.504C375.25 179.792 375.292 180.048 375.378 180.272C375.463 180.485 375.607 180.656 375.81 180.784C376.023 180.912 376.306 180.976 376.658 180.976C376.743 180.976 376.844 180.971 376.962 180.96C377.079 180.949 377.18 180.939 377.266 180.928V182C377.138 182.032 376.994 182.053 376.834 182.064C376.674 182.085 376.546 182.096 376.45 182.096ZM153.425 208.192C152.625 208.192 151.9 208 151.249 207.616C150.609 207.221 150.102 206.683 149.729 206C149.356 205.317 149.169 204.544 149.169 203.68C149.169 202.816 149.35 202.053 149.713 201.392C150.076 200.72 150.566 200.192 151.185 199.808C151.814 199.424 152.518 199.232 153.297 199.232C153.916 199.232 154.465 199.349 154.945 199.584C155.436 199.808 155.852 200.117 156.193 200.512C156.534 200.896 156.796 201.333 156.977 201.824C157.158 202.304 157.249 202.8 157.249 203.312C157.249 203.419 157.244 203.541 157.233 203.68C157.222 203.808 157.206 203.941 157.185 204.08H149.937V202.96H156.497L155.921 203.44C156.017 202.853 155.948 202.331 155.713 201.872C155.489 201.403 155.164 201.035 154.737 200.768C154.31 200.491 153.83 200.352 153.297 200.352C152.764 200.352 152.268 200.491 151.809 200.768C151.361 201.045 151.009 201.435 150.753 201.936C150.497 202.427 150.396 203.013 150.449 203.696C150.396 204.379 150.502 204.976 150.769 205.488C151.046 205.989 151.42 206.379 151.889 206.656C152.369 206.933 152.881 207.072 153.425 207.072C154.054 207.072 154.582 206.923 155.009 206.624C155.436 206.325 155.782 205.952 156.049 205.504L157.073 206.048C156.902 206.432 156.641 206.789 156.289 207.12C155.937 207.44 155.516 207.701 155.025 207.904C154.545 208.096 154.012 208.192 153.425 208.192ZM159.365 208V199.424H160.565V201.088L160.293 201.024C160.506 200.469 160.853 200.032 161.333 199.712C161.823 199.392 162.389 199.232 163.029 199.232C163.637 199.232 164.181 199.371 164.661 199.648C165.151 199.925 165.535 200.309 165.813 200.8C166.101 201.28 166.245 201.824 166.245 202.432V208H165.045V202.896C165.045 202.373 164.949 201.931 164.757 201.568C164.575 201.205 164.314 200.928 163.973 200.736C163.642 200.533 163.258 200.432 162.821 200.432C162.383 200.432 161.994 200.533 161.653 200.736C161.311 200.928 161.045 201.211 160.853 201.584C160.661 201.947 160.565 202.384 160.565 202.896V208H159.365ZM168.537 208V199.424H169.737V208H168.537ZM168.537 197.84V196.08H169.737V197.84H168.537ZM172.193 208V199.424H173.393V201.056L173.201 200.816C173.436 200.315 173.782 199.925 174.241 199.648C174.71 199.371 175.222 199.232 175.777 199.232C176.438 199.232 177.036 199.419 177.569 199.792C178.102 200.165 178.481 200.651 178.705 201.248L178.369 201.264C178.582 200.603 178.95 200.101 179.473 199.76C180.006 199.408 180.593 199.232 181.233 199.232C181.809 199.232 182.337 199.371 182.817 199.648C183.308 199.925 183.697 200.309 183.985 200.8C184.284 201.28 184.433 201.824 184.433 202.432V208H183.233V202.896C183.233 202.373 183.137 201.931 182.945 201.568C182.764 201.205 182.513 200.928 182.193 200.736C181.873 200.533 181.505 200.432 181.089 200.432C180.684 200.432 180.316 200.533 179.985 200.736C179.654 200.928 179.393 201.211 179.201 201.584C179.009 201.947 178.913 202.384 178.913 202.896V208H177.713V202.896C177.713 202.373 177.617 201.931 177.425 201.568C177.244 201.205 176.993 200.928 176.673 200.736C176.353 200.533 175.985 200.432 175.569 200.432C175.153 200.432 174.78 200.533 174.449 200.736C174.129 200.928 173.873 201.211 173.681 201.584C173.489 201.947 173.393 202.384 173.393 202.896V208H172.193ZM192.723 208.096C191.955 208.096 191.363 207.872 190.947 207.424C190.531 206.976 190.323 206.336 190.323 205.504V200.624H188.739V199.424H189.139C189.502 199.424 189.79 199.307 190.003 199.072C190.216 198.827 190.323 198.523 190.323 198.16V197.44H191.523V199.424H193.411V200.624H191.523V205.504C191.523 205.792 191.566 206.048 191.651 206.272C191.736 206.485 191.88 206.656 192.083 206.784C192.296 206.912 192.579 206.976 192.931 206.976C193.016 206.976 193.118 206.971 193.235 206.96C193.352 206.949 193.454 206.939 193.539 206.928V208C193.411 208.032 193.267 208.053 193.107 208.064C192.947 208.085 192.819 208.096 192.723 208.096ZM199.35 208.192C198.539 208.192 197.803 208 197.142 207.616C196.48 207.221 195.952 206.688 195.558 206.016C195.174 205.333 194.982 204.56 194.982 203.696C194.982 202.843 195.174 202.08 195.558 201.408C195.942 200.736 196.459 200.208 197.11 199.824C197.771 199.429 198.518 199.232 199.35 199.232C200.182 199.232 200.923 199.424 201.574 199.808C202.235 200.192 202.752 200.72 203.126 201.392C203.51 202.064 203.702 202.832 203.702 203.696C203.702 204.571 203.504 205.349 203.11 206.032C202.715 206.704 202.187 207.232 201.526 207.616C200.875 208 200.15 208.192 199.35 208.192ZM199.35 206.992C199.926 206.992 200.443 206.848 200.902 206.56C201.371 206.272 201.739 205.877 202.006 205.376C202.283 204.875 202.422 204.315 202.422 203.696C202.422 203.077 202.283 202.523 202.006 202.032C201.739 201.541 201.371 201.152 200.902 200.864C200.443 200.576 199.926 200.432 199.35 200.432C198.774 200.432 198.251 200.576 197.782 200.864C197.323 201.152 196.955 201.541 196.678 202.032C196.4 202.523 196.262 203.077 196.262 203.696C196.262 204.315 196.4 204.875 196.678 205.376C196.955 205.877 197.323 206.272 197.782 206.56C198.251 206.848 198.774 206.992 199.35 206.992ZM205.818 208V199.424H207.018V200.832L206.858 200.624C207.061 200.219 207.365 199.899 207.77 199.664C208.186 199.429 208.687 199.312 209.274 199.312H209.818V200.512H209.066C208.447 200.512 207.951 200.704 207.578 201.088C207.205 201.472 207.018 202.016 207.018 202.72V208H205.818ZM214.504 208.096C213.736 208.096 213.144 207.872 212.728 207.424C212.312 206.976 212.104 206.336 212.104 205.504V200.624H210.52V199.424H210.92C211.283 199.424 211.571 199.307 211.784 199.072C211.998 198.827 212.104 198.523 212.104 198.16V197.44H213.304V199.424H215.192V200.624H213.304V205.504C213.304 205.792 213.347 206.048 213.432 206.272C213.518 206.485 213.662 206.656 213.864 206.784C214.078 206.912 214.36 206.976 214.712 206.976C214.798 206.976 214.899 206.971 215.016 206.96C215.134 206.949 215.235 206.939 215.32 206.928V208C215.192 208.032 215.048 208.053 214.888 208.064C214.728 208.085 214.6 208.096 214.504 208.096ZM221.131 208.192C220.32 208.192 219.584 208 218.923 207.616C218.261 207.221 217.733 206.688 217.339 206.016C216.955 205.333 216.763 204.56 216.763 203.696C216.763 202.843 216.955 202.08 217.339 201.408C217.723 200.736 218.24 200.208 218.891 199.824C219.552 199.429 220.299 199.232 221.131 199.232C221.963 199.232 222.704 199.424 223.355 199.808C224.016 200.192 224.533 200.72 224.907 201.392C225.291 202.064 225.483 202.832 225.483 203.696C225.483 204.571 225.285 205.349 224.891 206.032C224.496 206.704 223.968 207.232 223.307 207.616C222.656 208 221.931 208.192 221.131 208.192ZM221.131 206.992C221.707 206.992 222.224 206.848 222.683 206.56C223.152 206.272 223.52 205.877 223.787 205.376C224.064 204.875 224.203 204.315 224.203 203.696C224.203 203.077 224.064 202.523 223.787 202.032C223.52 201.541 223.152 201.152 222.683 200.864C222.224 200.576 221.707 200.432 221.131 200.432C220.555 200.432 220.032 200.576 219.563 200.864C219.104 201.152 218.736 201.541 218.459 202.032C218.181 202.523 218.043 203.077 218.043 203.696C218.043 204.315 218.181 204.875 218.459 205.376C218.736 205.877 219.104 206.272 219.563 206.56C220.032 206.848 220.555 206.992 221.131 206.992ZM227.599 208V199.424H228.799V200.832L228.639 200.624C228.842 200.219 229.146 199.899 229.551 199.664C229.967 199.429 230.469 199.312 231.055 199.312H231.599V200.512H230.847C230.229 200.512 229.733 200.704 229.359 201.088C228.986 201.472 228.799 202.016 228.799 202.72V208H227.599ZM232.781 208V206.24H234.061V208H232.781Z" fill="#475569"/>
</svg>
